<?xml version="1.0" encoding="UTF-8" standalone="no"?><!DOCTYPE svg PUBLIC "-//W3C//DTD SVG 1.1//EN" "http://www.w3.org/Graphics/SVG/1.1/DTD/svg11.dtd"><svg width="100%" height="100%" viewBox="0 0 700 264" version="1.1" xmlns="http://www.w3.org/2000/svg" xmlns:xlink="http://www.w3.org/1999/xlink" xml:space="preserve" xmlns:serif="http://www.serif.com/" style="fill-rule:evenodd;clip-rule:evenodd;stroke-linejoin:round;stroke-miterlimit:2;"><path d="M515.181,216.349l20.222,-51.137l58.39,0l-27.712,-77.572l34.656,-87.64l99.263,263.552l-73.203,0l-16.964,-47.203l-94.652,0" style="fill:#3d3d3d;fill-rule:nonzero;"/><path d="M452.733,263.555l106.26,-263.551l-70.447,0l-72.692,170.31l-51.688,-170.31l-54.151,0l-55.499,170.31l-39.143,-77.606l-35.419,109.124l35.963,61.723l69.329,0l50.153,-152.734l47.818,152.734l69.516,0" style="fill:#5a0fc8;fill-rule:nonzero;"/><path d="M66.87,173.081l43.392,0c13.146,0 24.851,-1.468 35.114,-4.404l11.225,-34.57l31.361,-96.627c-2.388,-3.788 -5.117,-7.369 -8.184,-10.744c-16.105,-17.824 -39.665,-26.736 -70.684,-26.736l-109.094,0l0,263.552l66.87,0l0,-90.471Zm57.439,-112.447c6.288,6.329 9.434,14.802 9.434,25.415c0,10.695 -2.767,19.175 -8.296,25.444c-6.067,6.967 -17.231,10.447 -33.501,10.447l-25.076,0l0,-70.803l25.26,0c15.162,0 25.887,3.164 32.179,9.497" style="fill:#3d3d3d;fill-rule:nonzero;"/></svg>