<svg width="98" height="96" xmlns="http://www.w3.org/2000/svg" xmlns:xlink="http://www.w3.org/1999/xlink" xml:space="preserve" overflow="hidden"><defs><clipPath id="clip0"><rect x="666" y="232" width="98" height="96"/></clipPath><clipPath id="clip1"><rect x="667" y="232" width="96" height="96"/></clipPath><clipPath id="clip2"><rect x="667" y="232" width="96" height="96"/></clipPath><clipPath id="clip3"><rect x="667" y="232" width="96" height="96"/></clipPath></defs><g clip-path="url(#clip0)" transform="translate(-666 -232)"><g clip-path="url(#clip1)"><g clip-path="url(#clip2)"><g clip-path="url(#clip3)"><path d="M701.3 287 705.91 279C704.711 278.407 703.575 277.693 702.52 276.87L697.52 285.54C698.837 285.865 700.107 286.355 701.3 287Z" fill="#FF5324" fill-rule="nonzero" fill-opacity="1"/><path d="M720.21 304C720.074 303.173 720.004 302.338 720 301.5 720.001 300.999 720.028 300.498 720.08 300L709.92 300C709.972 300.498 709.999 300.999 710 301.5 709.996 302.338 709.926 303.173 709.79 304Z" fill="#FF5324" fill-rule="nonzero" fill-opacity="1"/><path d="M728 287.41C729.147 286.705 730.376 286.144 731.66 285.74L726.53 276.85C725.46 277.683 724.307 278.403 723.09 279Z" fill="#FF5324" fill-rule="nonzero" fill-opacity="1"/><path d="M693.5 289C686.596 289 681 294.596 681 301.5 681 308.404 686.596 314 693.5 314 700.404 314 706 308.404 706 301.5 706 294.596 700.404 289 693.5 289ZM693.5 293.87C695.438 293.865 697.015 295.431 697.02 297.37 697.026 299.309 695.458 300.884 693.52 300.89 691.581 300.896 690.005 299.328 690 297.39 690 297.383 690 297.377 690 297.37 690.005 295.439 691.569 293.875 693.5 293.87ZM700.5 307.93 686.5 307.93 686.5 305.26C686.513 304.712 686.77 304.199 687.2 303.86 688.238 303.115 689.394 302.55 690.62 302.19 691.56 301.917 692.531 301.769 693.51 301.75 694.49 301.756 695.463 301.904 696.4 302.19 697.64 302.512 698.803 303.08 699.82 303.86 700.25 304.199 700.507 304.712 700.52 305.26Z" fill="#FF5324" fill-rule="nonzero" fill-opacity="1"/><path d="M730 261.5C730 252.94 723.06 246 714.5 246 705.94 246 699 252.94 699 261.5 699 270.06 705.94 277 714.5 277 723.06 277 730 270.06 730 261.5ZM714.47 252C716.872 252 718.82 253.948 718.82 256.35 718.82 258.752 716.872 260.7 714.47 260.7 712.068 260.7 710.12 258.752 710.12 256.35 710.125 253.95 712.07 252.005 714.47 252ZM723.15 269.44 705.78 269.44 705.78 266.1C705.793 265.418 706.112 264.779 706.65 264.36 707.931 263.436 709.362 262.739 710.88 262.3 712.047 261.959 713.255 261.778 714.47 261.76 715.683 261.762 716.89 261.944 718.05 262.3 719.586 262.7 721.027 263.4 722.29 264.36 722.822 264.783 723.137 265.421 723.15 266.1Z" fill="#FF5324" fill-rule="nonzero" fill-opacity="1"/><path d="M736.5 289C729.596 289 724 294.596 724 301.5 724 308.404 729.596 314 736.5 314 743.404 314 749 308.404 749 301.5 749 294.596 743.404 289 736.5 289ZM736.5 293.87C738.438 293.865 740.015 295.431 740.02 297.37 740.026 299.309 738.458 300.884 736.52 300.89 734.581 300.896 733.005 299.328 733 297.39 733 297.383 733 297.377 733 297.37 733.005 295.439 734.569 293.875 736.5 293.87ZM743.5 307.93 729.5 307.93 729.5 305.26C729.513 304.712 729.77 304.199 730.2 303.86 731.238 303.115 732.394 302.55 733.62 302.19 734.56 301.917 735.531 301.769 736.51 301.75 737.49 301.756 738.463 301.904 739.4 302.19 740.64 302.512 741.803 303.08 742.82 303.86 743.25 304.199 743.507 304.712 743.52 305.26Z" fill="#FF5324" fill-rule="nonzero" fill-opacity="1"/></g></g></g></g></svg>