<svg width="96" height="98" xmlns="http://www.w3.org/2000/svg" xmlns:xlink="http://www.w3.org/1999/xlink" xml:space="preserve" overflow="hidden"><defs><clipPath id="clip0"><rect x="668" y="70" width="96" height="98"/></clipPath><clipPath id="clip1"><rect x="668" y="71" width="96" height="96"/></clipPath><clipPath id="clip2"><rect x="668" y="71" width="96" height="96"/></clipPath><clipPath id="clip3"><rect x="668" y="71" width="96" height="96"/></clipPath></defs><g clip-path="url(#clip0)" transform="translate(-668 -70)"><g clip-path="url(#clip1)"><g clip-path="url(#clip2)"><g clip-path="url(#clip3)"><path d="M702.3 126 706.91 118C705.711 117.407 704.575 116.693 703.52 115.87L698.52 124.54C699.837 124.865 701.107 125.355 702.3 126Z" fill="#4F2E85" fill-rule="nonzero" fill-opacity="1"/><path d="M721.21 143C721.074 142.173 721.004 141.338 721 140.5 721.001 139.999 721.028 139.498 721.08 139L710.92 139C710.972 139.498 710.999 139.999 711 140.5 710.996 141.338 710.926 142.173 710.79 143Z" fill="#4F2E85" fill-rule="nonzero" fill-opacity="1"/><path d="M729 126.41C730.147 125.705 731.376 125.144 732.66 124.74L727.53 115.85C726.46 116.683 725.307 117.403 724.09 118Z" fill="#4F2E85" fill-rule="nonzero" fill-opacity="1"/><path d="M694.5 128C687.596 128 682 133.596 682 140.5 682 147.404 687.596 153 694.5 153 701.404 153 707 147.404 707 140.5 707 133.596 701.404 128 694.5 128ZM694.5 132.87C696.438 132.865 698.015 134.432 698.02 136.37 698.026 138.309 696.458 139.884 694.52 139.89 692.581 139.896 691.005 138.328 691 136.39 691 136.383 691 136.377 691 136.37 691.005 134.439 692.569 132.876 694.5 132.87ZM701.5 146.93 687.5 146.93 687.5 144.26C687.513 143.712 687.77 143.199 688.2 142.86 689.238 142.115 690.394 141.55 691.62 141.19 692.56 140.917 693.531 140.769 694.51 140.75 695.49 140.756 696.463 140.904 697.4 141.19 698.64 141.512 699.803 142.08 700.82 142.86 701.25 143.199 701.507 143.712 701.52 144.26Z" fill="#4F2E85" fill-rule="nonzero" fill-opacity="1"/><path d="M731 100.5C731 91.9396 724.06 85 715.5 85 706.94 85 700 91.9396 700 100.5 700 109.06 706.94 116 715.5 116 724.06 116 731 109.06 731 100.5ZM715.47 91C717.872 91 719.82 92.9476 719.82 95.35 719.82 97.7524 717.872 99.7 715.47 99.7 713.068 99.7 711.12 97.7524 711.12 95.35 711.125 92.9498 713.07 91.0055 715.47 91ZM724.15 108.44 706.78 108.44 706.78 105.1C706.793 104.419 707.112 103.779 707.65 103.36 708.931 102.436 710.362 101.739 711.88 101.3 713.047 100.959 714.255 100.778 715.47 100.76 716.683 100.762 717.89 100.944 719.05 101.3 720.586 101.7 722.027 102.4 723.29 103.36 723.822 103.783 724.137 104.421 724.15 105.1Z" fill="#4F2E85" fill-rule="nonzero" fill-opacity="1"/><path d="M737.5 128C730.596 128 725 133.596 725 140.5 725 147.404 730.596 153 737.5 153 744.404 153 750 147.404 750 140.5 750 133.596 744.404 128 737.5 128ZM737.5 132.87C739.438 132.865 741.015 134.432 741.02 136.37 741.026 138.309 739.458 139.884 737.52 139.89 735.581 139.896 734.005 138.328 734 136.39 734 136.383 734 136.377 734 136.37 734.005 134.439 735.569 132.876 737.5 132.87ZM744.5 146.93 730.5 146.93 730.5 144.26C730.513 143.712 730.77 143.199 731.2 142.86 732.238 142.115 733.394 141.55 734.62 141.19 735.56 140.917 736.531 140.769 737.51 140.75 738.49 140.756 739.463 140.904 740.4 141.19 741.64 141.512 742.803 142.08 743.82 142.86 744.25 143.199 744.507 143.712 744.52 144.26Z" fill="#4F2E85" fill-rule="nonzero" fill-opacity="1"/></g></g></g></g></svg>