<svg width="96" height="98" xmlns="http://www.w3.org/2000/svg" xmlns:xlink="http://www.w3.org/1999/xlink" xml:space="preserve" overflow="hidden"><defs><clipPath id="clip0"><rect x="364" y="70" width="96" height="98"/></clipPath><clipPath id="clip1"><rect x="364" y="71" width="96" height="96"/></clipPath><clipPath id="clip2"><rect x="364" y="71" width="96" height="96"/></clipPath><clipPath id="clip3"><rect x="364" y="71" width="96" height="96"/></clipPath></defs><g clip-path="url(#clip0)" transform="translate(-364 -70)"><g clip-path="url(#clip1)"><g clip-path="url(#clip2)"><g clip-path="url(#clip3)"><path d="M383.7 124C383.2 124.3 382.6 124.7 382.1 125 379.7 126.8 378.1 129.5 377.7 132.5L375.9 154.5 377.5 155C378 155.2 391.2 159 412.1 159 433 159 446.1 155.2 446.7 155L448.3 154.5 446.6 132.7 446.6 132.5C446.1 129.6 444.5 126.9 442.2 125.1 439.4 123 436.4 121.2 433.1 119.9 434.5 116.9 433.3 113.3 430.4 111.8 437.7 101.8 435.5 87.7 425.5 80.4 415.5 73.1 401.4 75.3 394.1 85.3 388.3 93.2 388.3 103.9 394.1 111.8 391.1 113.4 389.9 117 391.4 120.1 388.9 121.2 386 122.6 383.7 124ZM395.6 119.2C394.5 118.6 394.2 117.2 394.8 116.1 395.2 115.4 395.9 115 396.7 115 405.3 123 418.6 123 427.2 115 427.4 115 427.6 115 427.7 115.1 428.9 115.4 429.6 116.6 429.3 117.8 429.2 118.4 428.8 118.9 428.3 119.2 424.4 121.6 418.4 123 412 123 405.6 123 399.7 121.6 395.6 119.2ZM416.2 93 419.3 94C420.6 96.7 424 99 424.1 102.9L424.1 103.9C424.1 105.3 423.9 106.6 423.4 107.9L419 107.9C418.6 107.3 418 106.9 417.3 106.9L415.3 106.9C414.2 106.9 413.3 107.8 413.3 108.9 413.3 110 414.2 110.9 415.3 110.9L417.3 110.9C418 110.9 418.7 110.5 419 109.9L422.5 109.9C419.2 115.6 411.9 117.6 406.1 114.3 402.8 112.4 400.6 109 400.2 105.2 398.8 97.2 410.3 100.1 416.2 93ZM412 80C419.3 80 425.9 84.3 428.9 90.9 424.9 87.9 418.9 86 412 86 405.1 86 399.1 87.9 395.1 90.9 398.1 84.3 404.7 80 412 80ZM433.8 153.5 433 146.8C432.9 145.7 431.9 144.9 430.8 145.1 429.7 145.2 428.9 146.2 429.1 147.3L429.9 154C423.9 154.7 418 155 412 155 406 155 400.1 154.7 394.2 154L395 147.3C395.1 146.2 394.4 145.2 393.3 145.1 392.2 145 391.2 145.7 391.1 146.8L390.3 153.5C385.6 152.8 382.1 152.1 380.3 151.6L381.8 133.1C382 132.2 382.3 131.2 382.8 130.4L387.3 134.2 391.2 129.6 387.5 126.4C389.8 125 392.1 123.9 394.6 122.9 399.2 125.4 405.6 126.9 412.3 126.9 419.1 126.9 425.5 125.4 430.1 122.8 432.6 123.7 434.9 124.9 437.2 126.3L433.4 129.6 437.3 134.2 441.8 130.4C442.3 131.2 442.6 132.1 442.8 133.1L444.3 151.5C442 152.1 438.6 152.8 433.8 153.5Z" fill="#4F2E85" fill-rule="nonzero" fill-opacity="1"/><path d="M371.2 107C370.6 109.2 369.1 111 367 112 369 113 370.6 114.8 371.2 117 371.8 114.8 373.3 113 375.4 112 373.3 111 371.8 109.2 371.2 107Z" fill="#4F2E85" fill-rule="nonzero" fill-opacity="1"/><path d="M420 132 404 132C401.8 132 400 133.8 400 136L400 144C400 146.2 401.8 148 404 148L420 148C422.2 148 424 146.2 424 144L424 136C424 133.8 422.2 132 420 132ZM404 144 404 136 420 136 420 144 404 144Z" fill="#4F2E85" fill-rule="nonzero" fill-opacity="1"/><path d="M381.8 80C381.2 82.2 379.7 84 377.6 85 379.6 86 381.2 87.8 381.8 90 382.4 87.8 383.9 86 386 85 384 84 382.4 82.2 381.8 80Z" fill="#4F2E85" fill-rule="nonzero" fill-opacity="1"/><path d="M447.8 102.1C447.2 104.3 445.7 106.1 443.6 107.1 445.6 108.1 447.2 109.9 447.8 112.1 448.4 109.9 449.9 108.1 452 107.1 450 106.1 448.4 104.3 447.8 102.1Z" fill="#4F2E85" fill-rule="nonzero" fill-opacity="1"/></g></g></g></g></svg>