<svg width="98" height="97" xmlns="http://www.w3.org/2000/svg" xmlns:xlink="http://www.w3.org/1999/xlink" xml:space="preserve" overflow="hidden"><defs><clipPath id="clip0"><rect x="970" y="65" width="98" height="97"/></clipPath><clipPath id="clip1"><rect x="971" y="66" width="96" height="96"/></clipPath><clipPath id="clip2"><rect x="971" y="66" width="96" height="96"/></clipPath><clipPath id="clip3"><rect x="971" y="66" width="96" height="96"/></clipPath></defs><g clip-path="url(#clip0)" transform="translate(-970 -65)"><g clip-path="url(#clip1)"><g clip-path="url(#clip2)"><g clip-path="url(#clip3)"><path d="M1042.77 89.125C1043.44 89.1228 1043.98 88.5819 1043.98 87.914 1043.99 87.6126 1043.87 87.3219 1043.66 87.107L1043.78 87.107C1044.45 87.1048 1044.99 86.5663 1044.99 85.9 1044.99 85.5833 1044.87 85.2784 1044.65 85.053 1045.3 84.9167 1045.71 84.2804 1045.58 83.6318 1045.52 83.3869 1045.4 83.1643 1045.21 82.995 1045.69 82.8243 1046.01 82.3684 1046 81.861 1046 81.1931 1045.46 80.6522 1044.79 80.65L1040.95 80.65C1040.63 80.6441 1040.37 80.3886 1040.35 80.065 1040.79 78.8302 1041 77.5224 1040.95 76.211 1040.97 75.5425 1040.45 74.9849 1039.78 74.9657 1039.11 74.9465 1038.55 75.4729 1038.53 76.1414 1038.53 76.1646 1038.53 76.1878 1038.53 76.211 1038.53 79.278 1034.96 81.011 1034.9 81.054L1034.9 87.511C1036.33 87.511 1036.44 89.125 1039.14 89.125Z" fill="#4F2E85" fill-rule="nonzero" fill-opacity="1"/><path d="M1033.69 87.712 1033.69 80.852C1033.69 80.4068 1033.33 80.0461 1032.88 80.045L1029.86 80.045 1029.86 88.52 1032.88 88.52C1033.33 88.5184 1033.69 88.1574 1033.69 87.712Z" fill="#4F2E85" fill-rule="nonzero" fill-opacity="1"/><path d="M990.771 111.25C991.439 111.248 991.98 110.707 991.982 110.039 991.987 109.738 991.87 109.447 991.659 109.232L991.78 109.232C992.448 109.23 992.989 108.689 992.991 108.021 992.994 107.704 992.87 107.399 992.648 107.174 993.297 107.038 993.712 106.401 993.576 105.753 993.524 105.508 993.397 105.285 993.213 105.116 993.69 104.946 994.006 104.492 994 103.986 993.998 103.318 993.457 102.777 992.789 102.775L988.955 102.775C988.633 102.767 988.372 102.512 988.355 102.19 988.797 100.955 989.001 99.6471 988.955 98.336 988.974 97.6675 988.448 97.1099 987.779 97.0907 987.111 97.0715 986.553 97.5979 986.534 98.2664 986.533 98.2896 986.533 98.3128 986.534 98.336 986.534 101.403 982.962 103.136 982.902 103.179L982.902 109.636C984.334 109.636 984.435 111.25 987.139 111.25Z" fill="#4F2E85" fill-rule="nonzero" fill-opacity="1"/><path d="M981.691 109.837 981.691 102.977C981.69 102.532 981.329 102.171 980.884 102.17L977.857 102.17 977.857 110.645 980.884 110.645C981.329 110.643 981.69 110.282 981.691 109.837Z" fill="#4F2E85" fill-rule="nonzero" fill-opacity="1"/><path d="M983.5 120.125 986.5 120.125 986.5 123.125 983.5 123.125Z" fill="#4F2E85" fill-rule="nonzero" fill-opacity="1"/><path d="M983.5 114.125 986.5 114.125 986.5 117.125 983.5 117.125Z" fill="#4F2E85" fill-rule="nonzero" fill-opacity="1"/><path d="M983.5 132.125 986.5 132.125 986.5 135.125 983.5 135.125Z" fill="#4F2E85" fill-rule="nonzero" fill-opacity="1"/><path d="M983.5 126.125 986.5 126.125 986.5 129.125 983.5 129.125Z" fill="#4F2E85" fill-rule="nonzero" fill-opacity="1"/><path d="M1000.5 107.125 1003.5 107.125 1003.5 110.125 1000.5 110.125Z" fill="#4F2E85" fill-rule="nonzero" fill-opacity="1"/><path d="M1000.5 113.125 1003.5 113.125 1003.5 116.125 1000.5 116.125Z" fill="#4F2E85" fill-rule="nonzero" fill-opacity="1"/><path d="M1000.5 95.125 1003.5 95.125 1003.5 98.125 1000.5 98.125Z" fill="#4F2E85" fill-rule="nonzero" fill-opacity="1"/><path d="M1000.5 101.125 1003.5 101.125 1003.5 104.125 1000.5 104.125Z" fill="#4F2E85" fill-rule="nonzero" fill-opacity="1"/><path d="M1022.5 121.125 1025.5 121.125 1025.5 124.125 1022.5 124.125Z" fill="#4F2E85" fill-rule="nonzero" fill-opacity="1"/><path d="M1022.5 115.125 1025.5 115.125 1025.5 118.125 1022.5 118.125Z" fill="#4F2E85" fill-rule="nonzero" fill-opacity="1"/><path d="M1035.5 116.125 1038.5 116.125 1038.5 119.125 1035.5 119.125Z" fill="#4F2E85" fill-rule="nonzero" fill-opacity="1"/><path d="M1035.5 104.125 1038.5 104.125 1038.5 107.125 1035.5 107.125Z" fill="#4F2E85" fill-rule="nonzero" fill-opacity="1"/><path d="M1035.5 110.125 1038.5 110.125 1038.5 113.125 1035.5 113.125Z" fill="#4F2E85" fill-rule="nonzero" fill-opacity="1"/><path d="M1035.5 92.125 1038.5 92.125 1038.5 95.125 1035.5 95.125Z" fill="#4F2E85" fill-rule="nonzero" fill-opacity="1"/><path d="M1035.5 98.125 1038.5 98.125 1038.5 101.125 1035.5 101.125Z" fill="#4F2E85" fill-rule="nonzero" fill-opacity="1"/><path d="M1051.5 114.125 1054.5 114.125 1054.5 117.125 1051.5 117.125Z" fill="#4F2E85" fill-rule="nonzero" fill-opacity="1"/><path d="M1051.5 120.125 1054.5 120.125 1054.5 123.125 1051.5 123.125Z" fill="#4F2E85" fill-rule="nonzero" fill-opacity="1"/><path d="M1051.5 132.125 1054.5 132.125 1054.5 135.125 1051.5 135.125Z" fill="#4F2E85" fill-rule="nonzero" fill-opacity="1"/><path d="M1051.5 126.125 1054.5 126.125 1054.5 129.125 1051.5 129.125Z" fill="#4F2E85" fill-rule="nonzero" fill-opacity="1"/><path d="M1051.5 108.125 1054.5 108.125 1054.5 111.125 1051.5 111.125Z" fill="#4F2E85" fill-rule="nonzero" fill-opacity="1"/><path d="M1059 148.125 1059 138 1047 138 1047 143.125 1042 143.125 1042 122.125 1032 122.125 1032 136.125 1029 136.125 1029 127.125 1019 127.125 1019 143.125 1015 143.125 1015 135.125 1008 135.125 1008 119.125 996 119.125 996 143.125 991 143.125 991 138.125 986.5 138.125 983.5 138.125 979 138.125 979 148.125 975 148.125 975 154.125 1063 154.125 1063 148.125 1059 148.125Z" fill="#4F2E85" fill-rule="nonzero" fill-opacity="1"/><path d="M1024 112.125C1024 112.125 1030 107.537 1030 103.831 1030 101.36 1026.22 98.713 1024 103.125 1021.78 98.713 1018 101.36 1018 103.831 1018 107.537 1024 112.125 1024 112.125Z" fill="#4F2E85" fill-rule="nonzero" fill-opacity="1"/><path d="M1053 105.125C1053 105.125 1059 100.537 1059 96.831 1059 94.36 1055.22 91.713 1053 96.125 1050.78 91.713 1047 94.36 1047 96.831 1047 100.537 1053 105.125 1053 105.125Z" fill="#4F2E85" fill-rule="nonzero" fill-opacity="1"/><path d="M1002 92.125C1002 92.125 1008 87.537 1008 83.831 1008 81.36 1004.22 78.713 1002 83.125 999.776 78.713 996 81.36 996 83.831 996 87.537 1002 92.125 1002 92.125Z" fill="#4F2E85" fill-rule="nonzero" fill-opacity="1"/></g></g></g></g></svg>