<svg xmlns="http://www.w3.org/2000/svg" width="18" height="18" viewBox="0 0 18 18">
  <defs>
    <linearGradient id="e64b6c84-5e74-4986-835e-be9426cddef2" x1="8" y1="6.81" x2="8" y2="19.27" gradientUnits="userSpaceOnUse">
      <stop offset="0.22" stop-color="#32d4f5" />
      <stop offset="0.47" stop-color="#31d1f3" />
      <stop offset="1" stop-color="#198ab3" />
      <stop offset="1" stop-color="#198ab3" />
    </linearGradient>
    <linearGradient id="bfcfeb46-d538-48a2-9048-ced0f5607d79" x1="7.64" y1="0.13" x2="8.55" y2="11.45" gradientUnits="userSpaceOnUse">
      <stop offset="0.22" stop-color="#32d4f5" />
      <stop offset="0.47" stop-color="#31d1f3" />
      <stop offset="1" stop-color="#198ab3" />
      <stop offset="1" stop-color="#198ab3" />
    </linearGradient>
    <linearGradient id="adfbf4de-fbab-482d-a1fd-d3b3e31a7b8b" x1="12.56" y1="8.79" x2="12.56" y2="15.9" gradientUnits="userSpaceOnUse">
      <stop offset="0.13" stop-color="#773adc" />
      <stop offset="0.23" stop-color="#8249e2" />
      <stop offset="0.43" stop-color="#9664ec" />
      <stop offset="0.6" stop-color="#a274f2" />
      <stop offset="0.74" stop-color="#a67af4" />
    </linearGradient>
  </defs>
  <g id="fed01b9b-2af6-43e2-93b4-81139db8c9b2">
    <g>
      <path d="M14.16,17a1.33,1.33,0,0,0,1.34-1.33.92.92,0,0,0,0-.16C15,11.34,12.58,7.92,8,7.92S1,10.82.5,15.54A1.35,1.35,0,0,0,1.7,17H14.16Z" fill="url(#e64b6c84-5e74-4986-835e-be9426cddef2)" />
      <path d="M8,8.89a4.3,4.3,0,0,1-2.28-.64L8,13.92l2.24-5.63A4.39,4.39,0,0,1,8,8.89Z" fill="#fff" opacity="0.8" />
      <circle cx="8.01" cy="4.71" r="4.21" fill="url(#bfcfeb46-d538-48a2-9048-ced0f5607d79)" />
      <path d="M15.55,13.79H9.61v2.5h0v0c0,.65,1.33,1.18,3,1.18s3-.53,3-1.18c0,0,0,0,0,0h0Z" fill="#773adc" />
      <path d="M12.21,10.36,7.79,12.47a.36.36,0,0,0,0,.63l4.42,1.8a.55.55,0,0,0,.4,0l4.68-1.81a.36.36,0,0,0,0-.64l-4.67-2.1A.52.52,0,0,0,12.21,10.36Z" fill="url(#adfbf4de-fbab-482d-a1fd-d3b3e31a7b8b)" />
      <path d="M16.32,14.51h0c0-.09-.08-.18-.13-.27a2.81,2.81,0,0,0-1.39-1.15l-1.92-.77-.61.43,1.93.77a2.71,2.71,0,0,1,1.5,1.37,3.88,3.88,0,0,1,.16.87,0,0,0,0,0,.09,0l.23-.43.29.35s.06,0,.06,0A2.54,2.54,0,0,0,16.32,14.51Z" fill="#50e6ff" />
      <ellipse cx="12.51" cy="12.58" rx="0.74" ry="0.35" fill="#552f99" />
    </g>
  </g>
</svg>