<svg width="96" height="96" xmlns="http://www.w3.org/2000/svg" xmlns:xlink="http://www.w3.org/1999/xlink" xml:space="preserve" overflow="hidden"><defs><clipPath id="clip0"><rect x="364" y="216" width="96" height="96"/></clipPath></defs><g clip-path="url(#clip0)" transform="translate(-364 -216)"><path d="M383.7 269C383.2 269.3 382.6 269.7 382.1 270 379.7 271.8 378.1 274.5 377.7 277.5L375.9 299.5 377.5 300C378 300.2 391.2 304 412.1 304 433 304 446.1 300.2 446.7 300L448.3 299.5 446.6 277.7 446.6 277.5C446.1 274.6 444.5 271.9 442.2 270.1 439.4 268 436.4 266.2 433.1 264.9 434.5 261.9 433.3 258.3 430.4 256.8 437.7 246.8 435.5 232.7 425.5 225.4 415.5 218.1 401.4 220.3 394.1 230.3 388.3 238.2 388.3 248.9 394.1 256.8 391.1 258.4 389.9 262 391.4 265.1 388.9 266.2 386 267.6 383.7 269ZM395.6 264.2C394.5 263.6 394.2 262.2 394.8 261.1 395.2 260.4 395.9 260 396.7 260 405.3 268 418.6 268 427.2 260 427.4 260 427.6 260 427.7 260.1 428.9 260.4 429.6 261.6 429.3 262.8 429.2 263.4 428.8 263.9 428.3 264.2 424.4 266.6 418.4 268 412 268 405.6 268 399.7 266.6 395.6 264.2ZM416.2 238 419.3 239C420.6 241.7 424 244 424.1 247.9L424.1 248.9C424.1 250.3 423.9 251.6 423.4 252.9L419 252.9C418.6 252.3 418 251.9 417.3 251.9L415.3 251.9C414.2 251.9 413.3 252.8 413.3 253.9 413.3 255 414.2 255.9 415.3 255.9L417.3 255.9C418 255.9 418.7 255.5 419 254.9L422.5 254.9C419.2 260.6 411.9 262.6 406.1 259.3 402.8 257.4 400.6 254 400.2 250.2 398.8 242.2 410.3 245.1 416.2 238ZM412 225C419.3 225 425.9 229.3 428.9 235.9 424.9 232.9 418.9 231 412 231 405.1 231 399.1 232.9 395.1 235.9 398.1 229.3 404.7 225 412 225ZM433.8 298.5 433 291.8C432.9 290.7 431.9 289.9 430.8 290.1 429.7 290.2 428.9 291.2 429.1 292.3L429.9 299C423.9 299.7 418 300 412 300 406 300 400.1 299.7 394.2 299L395 292.3C395.1 291.2 394.4 290.2 393.3 290.1 392.2 290 391.2 290.7 391.1 291.8L390.3 298.5C385.6 297.8 382.1 297.1 380.3 296.6L381.8 278.1C382 277.2 382.3 276.2 382.8 275.4L387.3 279.2 391.2 274.6 387.5 271.4C389.8 270 392.1 268.9 394.6 267.9 399.2 270.4 405.6 271.9 412.3 271.9 419.1 271.9 425.5 270.4 430.1 267.8 432.6 268.7 434.9 269.9 437.2 271.3L433.4 274.6 437.3 279.2 441.8 275.4C442.3 276.2 442.6 277.1 442.8 278.1L444.3 296.5C442 297.1 438.6 297.8 433.8 298.5Z" fill="#FF5324" fill-rule="nonzero" fill-opacity="1"/><path d="M371.2 252C370.6 254.2 369.1 256 367 257 369 258 370.6 259.8 371.2 262 371.8 259.8 373.3 258 375.4 257 373.3 256 371.8 254.2 371.2 252Z" fill="#FF5324" fill-rule="nonzero" fill-opacity="1"/><path d="M420 277 404 277C401.8 277 400 278.8 400 281L400 289C400 291.2 401.8 293 404 293L420 293C422.2 293 424 291.2 424 289L424 281C424 278.8 422.2 277 420 277ZM404 289 404 281 420 281 420 289 404 289Z" fill="#FF5324" fill-rule="nonzero" fill-opacity="1"/><path d="M381.8 225C381.2 227.2 379.7 229 377.6 230 379.6 231 381.2 232.8 381.8 235 382.4 232.8 383.9 231 386 230 384 229 382.4 227.2 381.8 225Z" fill="#FF5324" fill-rule="nonzero" fill-opacity="1"/><path d="M447.8 247.1C447.2 249.3 445.7 251.1 443.6 252.1 445.6 253.1 447.2 254.9 447.8 257.1 448.4 254.9 449.9 253.1 452 252.1 450 251.1 448.4 249.3 447.8 247.1Z" fill="#FF5324" fill-rule="nonzero" fill-opacity="1"/></g></svg>