<svg width="98" height="96" xmlns="http://www.w3.org/2000/svg" xmlns:xlink="http://www.w3.org/1999/xlink" xml:space="preserve" overflow="hidden"><defs><clipPath id="clip0"><rect x="966" y="216" width="98" height="96"/></clipPath><clipPath id="clip1"><rect x="967" y="216" width="96" height="96"/></clipPath><clipPath id="clip2"><rect x="967" y="216" width="96" height="96"/></clipPath><clipPath id="clip3"><rect x="967" y="216" width="96" height="96"/></clipPath></defs><g clip-path="url(#clip0)" transform="translate(-966 -216)"><g clip-path="url(#clip1)"><g clip-path="url(#clip2)"><g clip-path="url(#clip3)"><path d="M1038.77 239.125C1039.44 239.123 1039.98 238.582 1039.98 237.914 1039.99 237.613 1039.87 237.322 1039.66 237.107L1039.78 237.107C1040.45 237.105 1040.99 236.566 1040.99 235.9 1040.99 235.583 1040.87 235.278 1040.65 235.053 1041.3 234.917 1041.71 234.28 1041.58 233.632 1041.52 233.387 1041.4 233.164 1041.21 232.995 1041.69 232.824 1042.01 232.368 1042 231.861 1042 231.193 1041.46 230.652 1040.79 230.65L1036.95 230.65C1036.63 230.644 1036.37 230.389 1036.35 230.065 1036.79 228.83 1037 227.522 1036.95 226.211 1036.97 225.542 1036.45 224.985 1035.78 224.966 1035.11 224.946 1034.55 225.473 1034.53 226.141 1034.53 226.165 1034.53 226.188 1034.53 226.211 1034.53 229.278 1030.96 231.011 1030.9 231.054L1030.9 237.511C1032.33 237.511 1032.44 239.125 1035.14 239.125Z" fill="#FF5324" fill-rule="nonzero" fill-opacity="1"/><path d="M1029.69 237.712 1029.69 230.852C1029.69 230.407 1029.33 230.046 1028.88 230.045L1025.86 230.045 1025.86 238.52 1028.88 238.52C1029.33 238.518 1029.69 238.157 1029.69 237.712Z" fill="#FF5324" fill-rule="nonzero" fill-opacity="1"/><path d="M986.771 261.25C987.439 261.248 987.98 260.707 987.982 260.039 987.987 259.738 987.87 259.447 987.659 259.232L987.78 259.232C988.448 259.23 988.989 258.689 988.991 258.021 988.994 257.704 988.87 257.399 988.648 257.174 989.297 257.038 989.712 256.401 989.576 255.753 989.524 255.508 989.397 255.285 989.213 255.116 989.69 254.946 990.006 254.492 990 253.986 989.998 253.318 989.457 252.777 988.789 252.775L984.955 252.775C984.633 252.767 984.372 252.512 984.355 252.19 984.797 250.955 985.001 249.647 984.955 248.336 984.974 247.667 984.448 247.11 983.779 247.091 983.111 247.072 982.553 247.598 982.534 248.266 982.533 248.29 982.533 248.313 982.534 248.336 982.534 251.403 978.962 253.136 978.902 253.179L978.902 259.636C980.334 259.636 980.435 261.25 983.139 261.25Z" fill="#FF5324" fill-rule="nonzero" fill-opacity="1"/><path d="M977.691 259.837 977.691 252.977C977.69 252.532 977.329 252.171 976.884 252.17L973.857 252.17 973.857 260.645 976.884 260.645C977.329 260.643 977.69 260.282 977.691 259.837Z" fill="#FF5324" fill-rule="nonzero" fill-opacity="1"/><path d="M979.5 270.125 982.5 270.125 982.5 273.125 979.5 273.125Z" fill="#FF5324" fill-rule="nonzero" fill-opacity="1"/><path d="M979.5 264.125 982.5 264.125 982.5 267.125 979.5 267.125Z" fill="#FF5324" fill-rule="nonzero" fill-opacity="1"/><path d="M979.5 282.125 982.5 282.125 982.5 285.125 979.5 285.125Z" fill="#FF5324" fill-rule="nonzero" fill-opacity="1"/><path d="M979.5 276.125 982.5 276.125 982.5 279.125 979.5 279.125Z" fill="#FF5324" fill-rule="nonzero" fill-opacity="1"/><path d="M996.5 257.125 999.5 257.125 999.5 260.125 996.5 260.125Z" fill="#FF5324" fill-rule="nonzero" fill-opacity="1"/><path d="M996.5 263.125 999.5 263.125 999.5 266.125 996.5 266.125Z" fill="#FF5324" fill-rule="nonzero" fill-opacity="1"/><path d="M996.5 245.125 999.5 245.125 999.5 248.125 996.5 248.125Z" fill="#FF5324" fill-rule="nonzero" fill-opacity="1"/><path d="M996.5 251.125 999.5 251.125 999.5 254.125 996.5 254.125Z" fill="#FF5324" fill-rule="nonzero" fill-opacity="1"/><path d="M1018.5 271.125 1021.5 271.125 1021.5 274.125 1018.5 274.125Z" fill="#FF5324" fill-rule="nonzero" fill-opacity="1"/><path d="M1018.5 265.125 1021.5 265.125 1021.5 268.125 1018.5 268.125Z" fill="#FF5324" fill-rule="nonzero" fill-opacity="1"/><path d="M1031.5 266.125 1034.5 266.125 1034.5 269.125 1031.5 269.125Z" fill="#FF5324" fill-rule="nonzero" fill-opacity="1"/><path d="M1031.5 254.125 1034.5 254.125 1034.5 257.125 1031.5 257.125Z" fill="#FF5324" fill-rule="nonzero" fill-opacity="1"/><path d="M1031.5 260.125 1034.5 260.125 1034.5 263.125 1031.5 263.125Z" fill="#FF5324" fill-rule="nonzero" fill-opacity="1"/><path d="M1031.5 242.125 1034.5 242.125 1034.5 245.125 1031.5 245.125Z" fill="#FF5324" fill-rule="nonzero" fill-opacity="1"/><path d="M1031.5 248.125 1034.5 248.125 1034.5 251.125 1031.5 251.125Z" fill="#FF5324" fill-rule="nonzero" fill-opacity="1"/><path d="M1047.5 264.125 1050.5 264.125 1050.5 267.125 1047.5 267.125Z" fill="#FF5324" fill-rule="nonzero" fill-opacity="1"/><path d="M1047.5 270.125 1050.5 270.125 1050.5 273.125 1047.5 273.125Z" fill="#FF5324" fill-rule="nonzero" fill-opacity="1"/><path d="M1047.5 282.125 1050.5 282.125 1050.5 285.125 1047.5 285.125Z" fill="#FF5324" fill-rule="nonzero" fill-opacity="1"/><path d="M1047.5 276.125 1050.5 276.125 1050.5 279.125 1047.5 279.125Z" fill="#FF5324" fill-rule="nonzero" fill-opacity="1"/><path d="M1047.5 258.125 1050.5 258.125 1050.5 261.125 1047.5 261.125Z" fill="#FF5324" fill-rule="nonzero" fill-opacity="1"/><path d="M1055 298.125 1055 288 1043 288 1043 293.125 1038 293.125 1038 272.125 1028 272.125 1028 286.125 1025 286.125 1025 277.125 1015 277.125 1015 293.125 1011 293.125 1011 285.125 1004 285.125 1004 269.125 992 269.125 992 293.125 987 293.125 987 288.125 982.5 288.125 979.5 288.125 975 288.125 975 298.125 971 298.125 971 304.125 1059 304.125 1059 298.125 1055 298.125Z" fill="#FF5324" fill-rule="nonzero" fill-opacity="1"/><path d="M1020 262.125C1020 262.125 1026 257.537 1026 253.831 1026 251.36 1022.22 248.713 1020 253.125 1017.78 248.713 1014 251.36 1014 253.831 1014 257.537 1020 262.125 1020 262.125Z" fill="#FF5324" fill-rule="nonzero" fill-opacity="1"/><path d="M1049 255.125C1049 255.125 1055 250.537 1055 246.831 1055 244.36 1051.22 241.713 1049 246.125 1046.78 241.713 1043 244.36 1043 246.831 1043 250.537 1049 255.125 1049 255.125Z" fill="#FF5324" fill-rule="nonzero" fill-opacity="1"/><path d="M998 242.125C998 242.125 1004 237.537 1004 233.831 1004 231.36 1000.22 228.713 998 233.125 995.776 228.713 992 231.36 992 233.831 992 237.537 998 242.125 998 242.125Z" fill="#FF5324" fill-rule="nonzero" fill-opacity="1"/></g></g></g></g></svg>