<svg width="96" height="97" xmlns="http://www.w3.org/2000/svg" xmlns:xlink="http://www.w3.org/1999/xlink" xml:space="preserve" overflow="hidden"><defs><clipPath id="clip0"><rect x="80" y="204" width="96" height="97"/></clipPath><clipPath id="clip1"><rect x="80" y="205" width="96" height="96"/></clipPath><clipPath id="clip2"><rect x="80" y="205" width="96" height="96"/></clipPath><clipPath id="clip3"><rect x="80" y="205" width="96" height="96"/></clipPath></defs><g clip-path="url(#clip0)" transform="translate(-80 -204)"><g clip-path="url(#clip1)"><g clip-path="url(#clip2)"><g clip-path="url(#clip3)"><path d="M116.253 296 89.938 285.1 89.938 219.999 116.253 209.099 116.253 296Z" fill="#FF5324" fill-rule="nonzero" fill-opacity="1"/><path d="M131.006 236.92 137.006 231.795 137.006 219.366 120.253 219.366 120.253 225.366 131.006 225.366 131.006 236.92Z" fill="#FF5324" fill-rule="nonzero" fill-opacity="1"/><path d="M131.006 265.811 131.006 279.366 120.253 279.366 120.253 285.366 137.006 285.366 137.006 270.936 131.006 265.811Z" fill="#FF5324" fill-rule="nonzero" fill-opacity="1"/><path d="M144.253 230.866 144.253 243.366 166.006 243.366 166.006 259.366 144.253 259.366 144.253 271.866 120.253 251.366 144.253 230.866Z" fill="#FF5324" fill-rule="nonzero" fill-opacity="1"/></g></g></g></g></svg>