<svg width="96" height="97" xmlns="http://www.w3.org/2000/svg" xmlns:xlink="http://www.w3.org/1999/xlink" xml:space="preserve" overflow="hidden"><defs><clipPath id="clip0"><rect x="80" y="65" width="96" height="97"/></clipPath><clipPath id="clip1"><rect x="80" y="66" width="96" height="96"/></clipPath><clipPath id="clip2"><rect x="80" y="66" width="96" height="96"/></clipPath><clipPath id="clip3"><rect x="80" y="66" width="96" height="96"/></clipPath></defs><g clip-path="url(#clip0)" transform="translate(-80 -65)"><g clip-path="url(#clip1)"><g clip-path="url(#clip2)"><g clip-path="url(#clip3)"><path d="M116.253 157 89.938 146.1 89.938 80.999 116.253 70.099 116.253 157Z" fill="#4F2E85" fill-rule="nonzero" fill-opacity="1"/><path d="M131.006 97.92 137.006 92.795 137.006 80.366 120.253 80.366 120.253 86.366 131.006 86.366 131.006 97.92Z" fill="#4F2E85" fill-rule="nonzero" fill-opacity="1"/><path d="M131.006 126.811 131.006 140.366 120.253 140.366 120.253 146.366 137.006 146.366 137.006 131.936 131.006 126.811Z" fill="#4F2E85" fill-rule="nonzero" fill-opacity="1"/><path d="M144.253 91.866 144.253 104.366 166.006 104.366 166.006 120.366 144.253 120.366 144.253 132.866 120.253 112.366 144.253 91.866Z" fill="#4F2E85" fill-rule="nonzero" fill-opacity="1"/></g></g></g></g></svg>