<svg width="561" height="560" xmlns="http://www.w3.org/2000/svg" xmlns:xlink="http://www.w3.org/1999/xlink" xml:space="preserve" overflow="hidden"><defs><clipPath id="clip0"><rect x="773" y="0" width="561" height="560"/></clipPath><clipPath id="clip1"><rect x="774" y="0" width="560" height="560"/></clipPath><clipPath id="clip2"><rect x="774" y="0" width="560" height="560"/></clipPath><clipPath id="clip3"><rect x="774" y="0" width="560" height="560"/></clipPath></defs><g clip-path="url(#clip0)" transform="translate(-773 0)"><g clip-path="url(#clip1)"><g clip-path="url(#clip2)"><g clip-path="url(#clip3)"><path d="M1054.59 423.5C1045.89 423.5 1038.84 431.072 1038.84 440.413L1038.84 440.413C1038.84 449.753 1045.89 457.325 1054.59 457.325L1146.89 457.333 1146.89 423.5 1054.59 423.5Z" fill="#FFFFFF" fill-rule="nonzero" fill-opacity="1"/><path d="M1051.25 440.413 1051.25 440.413C1051.25 432.683 1057.52 426.416 1065.25 426.416L1147.33 426.417 1147.3 420 984.583 420C973.307 420 964.167 429.141 964.167 440.417 964.167 451.693 973.307 460.833 984.583 460.833L1147.33 460.833 1147.33 454.417 1065.25 454.41C1057.52 454.41 1051.25 448.143 1051.25 440.413Z" fill="#F35022" fill-rule="nonzero" fill-opacity="1"/><path d="M1067.67 432.25 1112.75 432.25 1112.75 433.417 1067.67 433.417Z" fill="#EFEFEF" fill-rule="nonzero" fill-opacity="1"/><path d="M1067.67 435.75 1112.75 435.75 1112.75 436.917 1067.67 436.917Z" fill="#EFEFEF" fill-rule="nonzero" fill-opacity="1"/><path d="M1067.67 439.25 1140.17 439.25 1140.17 440.417 1067.67 440.417Z" fill="#EFEFEF" fill-rule="nonzero" fill-opacity="1"/><path d="M1008.44 420 1010.77 420 1010.77 460.833 1008.44 460.833Z" fill="#FFFFFF" fill-rule="nonzero" fill-opacity="1"/><path d="M1015.17 420 1017.51 420 1017.51 460.833 1015.17 460.833Z" fill="#FFFFFF" fill-rule="nonzero" fill-opacity="1"/><path d="M1061.59 382.958C1052.89 382.958 1045.84 390.531 1045.84 399.871L1045.84 399.871C1045.84 409.212 1052.89 416.784 1061.59 416.784L1153.89 416.791 1153.89 382.958 1061.59 382.958Z" fill="#FFFFFF" fill-rule="nonzero" fill-opacity="1"/><path d="M1058.25 399.871 1058.25 399.871C1058.25 392.141 1064.52 385.874 1072.25 385.874L1154.33 385.875 1154.3 379.458 991.582 379.458C980.306 379.458 971.165 388.599 971.165 399.875 971.165 411.151 980.306 420.292 991.582 420.292L1154.33 420.292 1154.33 413.875 1072.25 413.869C1064.52 413.869 1058.25 407.602 1058.25 399.871Z" fill="#737373" fill-rule="nonzero" fill-opacity="1"/><path d="M1074.67 391.708 1119.75 391.708 1119.75 392.875 1074.67 392.875Z" fill="#EFEFEF" fill-rule="nonzero" fill-opacity="1"/><path d="M1074.67 395.208 1119.75 395.208 1119.75 396.375 1074.67 396.375Z" fill="#EFEFEF" fill-rule="nonzero" fill-opacity="1"/><path d="M1074.67 398.708 1147.17 398.708 1147.17 399.875 1074.67 399.875Z" fill="#EFEFEF" fill-rule="nonzero" fill-opacity="1"/><path d="M1015.44 379.458 1017.77 379.458 1017.77 420.292 1015.44 420.292Z" fill="#505050" fill-rule="nonzero" fill-opacity="1"/><path d="M1022.17 379.458 1024.5 379.458 1024.5 420.292 1022.17 420.292Z" fill="#505050" fill-rule="nonzero" fill-opacity="1"/><path d="M1046.94 342.417C1038.25 342.417 1031.2 349.989 1031.2 359.329L1031.2 359.329C1031.2 368.67 1038.25 376.242 1046.94 376.242L1139.25 376.25 1139.25 342.417 1046.94 342.417Z" fill="#FFFFFF" fill-rule="nonzero" fill-opacity="1"/><path d="M1043.67 359.33 1043.67 359.33C1043.67 351.599 1049.94 345.333 1057.67 345.333L1139.75 345.333 1139.71 338.917 976.999 338.917C965.723 338.917 956.582 348.057 956.582 359.333 956.582 370.609 965.723 379.75 976.999 379.75L1139.75 379.75 1139.75 373.333 1057.67 373.327C1049.94 373.327 1043.67 367.06 1043.67 359.33Z" fill="#505050" fill-rule="nonzero" fill-opacity="1"/><path d="M1060.09 351.167 1105.17 351.167 1105.17 352.333 1060.09 352.333Z" fill="#EFEFEF" fill-rule="nonzero" fill-opacity="1"/><path d="M1060.09 354.667 1105.17 354.667 1105.17 355.833 1060.09 355.833Z" fill="#EFEFEF" fill-rule="nonzero" fill-opacity="1"/><path d="M1060.09 358.167 1132.58 358.167 1132.58 359.333 1060.09 359.333Z" fill="#EFEFEF" fill-rule="nonzero" fill-opacity="1"/><path d="M1054.47 301.583C1045.77 301.583 1038.72 309.156 1038.72 318.496L1038.72 318.496C1038.72 327.837 1045.77 335.409 1054.47 335.409L1146.77 335.417 1146.77 301.583 1054.47 301.583Z" fill="#FFFFFF" fill-rule="nonzero" fill-opacity="1"/><path d="M1051.25 318.496 1051.25 318.496C1051.25 310.766 1057.52 304.499 1065.25 304.499L1147.33 304.5 1147.3 298.083 984.583 298.083C973.307 298.083 964.167 307.224 964.167 318.5 964.167 329.776 973.307 338.917 984.583 338.917L1147.33 338.917 1147.33 332.5 1065.25 332.494C1057.52 332.494 1051.25 326.227 1051.25 318.496Z" fill="#F35022" fill-rule="nonzero" fill-opacity="1"/><path d="M1067.67 310.333 1112.75 310.333 1112.75 311.5 1067.67 311.5Z" fill="#EFEFEF" fill-rule="nonzero" fill-opacity="1"/><path d="M1067.67 313.833 1112.75 313.833 1112.75 315 1067.67 315Z" fill="#EFEFEF" fill-rule="nonzero" fill-opacity="1"/><path d="M1067.67 317.333 1140.17 317.333 1140.17 318.5 1067.67 318.5Z" fill="#EFEFEF" fill-rule="nonzero" fill-opacity="1"/><path d="M1061.53 261.333C1052.83 261.333 1045.78 268.906 1045.78 278.246L1045.78 278.246C1045.78 287.587 1052.83 295.158 1061.53 295.158L1153.83 295.167 1153.83 261.334 1061.53 261.333Z" fill="#FFFFFF" fill-rule="nonzero" fill-opacity="1"/><path d="M1058.25 278.246 1058.25 278.246C1058.25 270.516 1064.52 264.249 1072.25 264.249L1154.33 264.25 1154.3 257.833 991.582 257.833C980.306 257.833 971.165 266.974 971.165 278.25 971.165 289.526 980.306 298.667 991.582 298.667L1154.33 298.667 1154.33 292.25 1072.25 292.244C1064.52 292.244 1058.25 285.977 1058.25 278.246Z" fill="#737373" fill-rule="nonzero" fill-opacity="1"/><path d="M1074.67 270.083 1119.75 270.083 1119.75 271.25 1074.67 271.25Z" fill="#EFEFEF" fill-rule="nonzero" fill-opacity="1"/><path d="M1074.67 273.583 1119.75 273.583 1119.75 274.75 1074.67 274.75Z" fill="#EFEFEF" fill-rule="nonzero" fill-opacity="1"/><path d="M1074.67 277.083 1147.17 277.083 1147.17 278.25 1074.67 278.25Z" fill="#EFEFEF" fill-rule="nonzero" fill-opacity="1"/><path d="M1015.44 257.833 1017.77 257.833 1017.77 298.667 1015.44 298.667Z" fill="#505050" fill-rule="nonzero" fill-opacity="1"/><path d="M1022.17 257.833 1024.5 257.833 1024.5 298.667 1022.17 298.667Z" fill="#505050" fill-rule="nonzero" fill-opacity="1"/><path d="M1043.64 220.5C1034.62 220.5 1027.31 228.072 1027.31 237.413L1027.31 237.413C1027.31 246.753 1034.62 254.325 1043.64 254.325L1139.36 254.333 1139.36 220.501 1043.64 220.5Z" fill="#FFFFFF" fill-rule="nonzero" fill-opacity="1"/><path d="M1043.67 237.413 1043.67 237.413C1043.67 229.683 1049.94 223.416 1057.67 223.416L1139.75 223.417 1139.71 217 976.999 217C965.723 217 956.582 226.141 956.582 237.417 956.582 248.692 965.723 257.833 976.999 257.833L1139.75 257.833 1139.75 251.417 1057.67 251.41C1049.94 251.41 1043.67 245.143 1043.67 237.413Z" fill="#F35022" fill-rule="nonzero" fill-opacity="1"/><path d="M1060.09 229.25 1105.17 229.25 1105.17 230.417 1060.09 230.417Z" fill="#EFEFEF" fill-rule="nonzero" fill-opacity="1"/><path d="M1060.09 232.75 1105.17 232.75 1105.17 233.917 1060.09 233.917Z" fill="#EFEFEF" fill-rule="nonzero" fill-opacity="1"/><path d="M1060.09 236.25 1132.58 236.25 1132.58 237.417 1060.09 237.417Z" fill="#EFEFEF" fill-rule="nonzero" fill-opacity="1"/><path d="M1079.93 163.162C1074.05 148.631 1071.46 131.112 1061.62 131.112 1051.77 131.112 1049.18 148.631 1043.3 163.162 1043.21 163.396 1043.11 163.627 1043.01 163.858 1047.18 166.755 1049.92 171.578 1049.92 177.042 1049.92 184.054 1045.42 190.012 1039.14 192.193 1039.32 192.851 1039.42 193.538 1039.42 194.25 1039.42 198.574 1036.05 202.103 1031.8 202.389 1036.49 214.271 1048.07 218.016 1061.62 218.016 1079.32 218.016 1093.67 208.333 1093.67 190.633 1093.67 182.779 1084.62 174.754 1079.93 163.162Z" fill="#F35022" fill-rule="nonzero" fill-opacity="1"/><path d="M1085.5 100.333C1085.5 100.333 1074.56 101.24 1067.25 108.548 1064.16 111.637 1062.22 115.373 1061 118.66L1061 122.5 1061 126.472 1061 133 1062.17 133 1062.17 126.211C1065.89 125.322 1072.21 123.192 1077.05 118.351 1084.36 111.043 1085.5 100.333 1085.5 100.333Z" fill="#737373" fill-rule="nonzero" fill-opacity="1"/></g></g></g></g></svg>