<svg width="561" height="560" xmlns="http://www.w3.org/2000/svg" xmlns:xlink="http://www.w3.org/1999/xlink" xml:space="preserve" overflow="hidden"><defs><clipPath id="clip0"><rect x="773" y="0" width="561" height="560"/></clipPath><clipPath id="clip1"><rect x="774" y="0" width="560" height="560"/></clipPath><clipPath id="clip2"><rect x="774" y="0" width="560" height="560"/></clipPath><clipPath id="clip3"><rect x="774" y="0" width="560" height="560"/></clipPath></defs><g clip-path="url(#clip0)" transform="translate(-773 0)"><g clip-path="url(#clip1)"><g clip-path="url(#clip2)"><g clip-path="url(#clip3)"><path d="M820.935 274.054 947.467 249.392 980.721 420.01 854.19 444.671Z" fill="#FF2F92" fill-rule="nonzero" fill-opacity="1"/><path d="M897.353 281.935 1026.27 281.935 1026.27 455.768 897.353 455.768Z" fill="#F2F2F2" fill-rule="nonzero" fill-opacity="1"/><path d="M1007.9 429.042 915.728 429.042 915.728 428.458 1007.9 428.458 1007.9 429.042ZM1007.9 423.092 915.728 423.092 915.728 423.675 1007.9 423.675 1007.9 423.092ZM1007.9 417.725 915.728 417.725 915.728 418.308 1007.9 418.308 1007.9 417.725ZM1007.9 412.358 915.728 412.358 915.728 412.942 1007.9 412.942 1007.9 412.358ZM1007.9 406.992 915.728 406.992 915.728 407.575 1007.9 407.575 1007.9 406.992ZM1007.9 401.625 915.728 401.625 915.728 402.208 1007.9 402.208 1007.9 401.625ZM1007.9 396.258 915.728 396.258 915.728 396.842 1007.9 396.842 1007.9 396.258ZM1007.9 390.892 915.728 390.892 915.728 391.475 1007.9 391.475 1007.9 390.892ZM1007.9 385.525 915.728 385.525 915.728 386.108 1007.9 386.108 1007.9 385.525ZM1007.9 380.158 915.728 380.158 915.728 380.742 1007.9 380.742 1007.9 380.158ZM1007.9 374.792 915.728 374.792 915.728 375.375 1007.9 375.375 1007.9 374.792ZM1007.9 369.425 915.728 369.425 915.728 370.008 1007.9 370.008 1007.9 369.425ZM1007.9 364.058 915.728 364.058 915.728 364.642 1007.9 364.642 1007.9 364.058ZM1007.9 358.692 915.728 358.692 915.728 359.275 1007.9 359.275 1007.9 358.692ZM1007.9 353.325 915.728 353.325 915.728 353.908 1007.9 353.908 1007.9 353.325ZM1007.9 347.958 915.728 347.958 915.728 348.542 1007.9 348.542 1007.9 347.958ZM1007.9 342.592 915.728 342.592 915.728 343.175 1007.9 343.175 1007.9 342.592ZM1007.9 337.225 915.728 337.225 915.728 337.808 1007.9 337.808 1007.9 337.225ZM1007.9 331.858 915.728 331.858 915.728 332.442 1007.9 332.442 1007.9 331.858ZM1007.9 326.492 915.728 326.492 915.728 327.075 1007.9 327.075 1007.9 326.492ZM1007.9 321.125 915.728 321.125 915.728 321.708 1007.9 321.708 1007.9 321.125ZM1007.9 315.758 915.728 315.758 915.728 316.342 1007.9 316.342 1007.9 315.758ZM1007.9 310.392 915.728 310.392 915.728 310.975 1007.9 310.975 1007.9 310.392Z" fill="#CFCFCF" fill-rule="nonzero" fill-opacity="1"/><path d="M1289.48 297.759C1287.27 292.922 1272.09 294.896 1249.2 298.458 1233.61 300.886 1215.93 303.637 1214.26 300.168 1213.89 299.407 1214.23 297.793 1217.9 294.43 1220.2 292.317 1220.94 290.139 1220.09 287.956 1216.96 279.893 1192.24 274.75 1180.37 274.75L1177.16 274.75 1177.16 271.25 1159.75 271.25 1159.75 279.704 1177.16 279.704 1177.16 275.917 1180.37 275.917C1193.71 275.917 1216.33 281.5 1219 288.379 1219.67 290.092 1219.05 291.79 1217.11 293.57 1213.64 296.745 1212.41 299.003 1213.21 300.673 1215.11 304.637 1228.15 302.916 1249.38 299.611 1266.74 296.91 1286.41 293.849 1288.42 298.244 1289 299.508 1288.23 302.252 1281.29 308.138 1251.51 333.408 1257.73 356.081 1265.61 384.788 1268.05 393.691 1270.58 402.897 1272.34 413.1 1276.05 434.497 1266.35 446.759 1257.56 453.278 1242.39 464.522 1219.68 466.335 1213.14 463.044 1212.47 462.706 1211.67 462.149 1211.67 461.416L1211.67 456.166 1214 456.166 1214 443.916 1208.17 443.916 1208.17 456.166 1210.5 456.166 1210.5 461.416C1210.5 462.149 1210.87 463.206 1212.62 464.086 1214.61 465.092 1218.1 465.679 1222.44 465.679 1232.46 465.679 1247.01 462.549 1258.25 454.215 1267.31 447.501 1277.31 434.883 1273.49 412.9 1271.72 402.643 1269.18 393.408 1266.73 384.478 1262.76 369.981 1259.32 357.46 1260.48 345.274 1261.75 331.949 1268.61 320.432 1282.05 309.028 1288.23 303.78 1290.59 300.198 1289.48 297.759Z" fill="#CFCFCF" fill-rule="nonzero" fill-opacity="1"/><path d="M879.705 397.833 824.214 397.833C821.61 397.833 819.5 395.723 819.5 393.119L819.5 277.071C819.5 274.468 821.61 272.357 824.214 272.357L879.705 272.357C882.309 272.357 884.419 274.468 884.419 277.071L884.419 393.119C884.419 395.723 882.309 397.833 879.705 397.833Z" fill="#505050" fill-rule="nonzero" fill-opacity="1"/><path d="M833.736 338.423C833.736 340.293 832.219 341.809 830.349 341.809 828.478 341.809 826.962 340.293 826.962 338.423 826.962 336.552 828.478 335.036 830.349 335.036 832.219 335.036 833.736 336.552 833.736 338.423Z" fill="#737373" fill-rule="nonzero" fill-opacity="1"/><path d="M844.744 338.423C844.744 340.293 843.227 341.809 841.357 341.809 839.486 341.809 837.97 340.293 837.97 338.423 837.97 336.552 839.486 335.036 841.357 335.036 843.227 335.036 844.744 336.552 844.744 338.423Z" fill="#737373" fill-rule="nonzero" fill-opacity="1"/><path d="M855.752 338.423C855.752 340.293 854.235 341.809 852.365 341.809 850.495 341.809 848.978 340.293 848.978 338.423 848.978 336.552 850.495 335.036 852.365 335.036 854.235 335.036 855.752 336.552 855.752 338.423Z" fill="#737373" fill-rule="nonzero" fill-opacity="1"/><path d="M866.76 338.423C866.76 340.293 865.244 341.809 863.373 341.809 861.503 341.809 859.986 340.293 859.986 338.423 859.986 336.552 861.503 335.036 863.373 335.036 865.244 335.036 866.76 336.552 866.76 338.423Z" fill="#737373" fill-rule="nonzero" fill-opacity="1"/><path d="M877.768 338.423C877.768 340.293 876.252 341.809 874.381 341.809 872.511 341.809 870.994 340.293 870.994 338.423 870.994 336.552 872.511 335.036 874.381 335.036 876.252 335.036 877.768 336.552 877.768 338.423Z" fill="#737373" fill-rule="nonzero" fill-opacity="1"/><path d="M833.736 349.148C833.736 351.019 832.219 352.535 830.349 352.535 828.478 352.535 826.962 351.019 826.962 349.148 826.962 347.278 828.478 345.761 830.349 345.761 832.219 345.761 833.736 347.278 833.736 349.148Z" fill="#CFCFCF" fill-rule="nonzero" fill-opacity="1"/><path d="M844.744 349.148C844.744 351.019 843.227 352.535 841.357 352.535 839.486 352.535 837.97 351.019 837.97 349.148 837.97 347.278 839.486 345.761 841.357 345.761 843.227 345.761 844.744 347.278 844.744 349.148Z" fill="#737373" fill-rule="nonzero" fill-opacity="1"/><path d="M855.752 349.148C855.752 351.019 854.235 352.535 852.365 352.535 850.495 352.535 848.978 351.019 848.978 349.148 848.978 347.278 850.495 345.761 852.365 345.761 854.235 345.761 855.752 347.278 855.752 349.148Z" fill="#737373" fill-rule="nonzero" fill-opacity="1"/><path d="M866.76 349.148C866.76 351.019 865.244 352.535 863.373 352.535 861.503 352.535 859.986 351.019 859.986 349.148 859.986 347.278 861.503 345.761 863.373 345.761 865.244 345.761 866.76 347.278 866.76 349.148Z" fill="#737373" fill-rule="nonzero" fill-opacity="1"/><path d="M877.768 349.148C877.768 351.019 876.252 352.535 874.381 352.535 872.511 352.535 870.994 351.019 870.994 349.148 870.994 347.278 872.511 345.761 874.381 345.761 876.252 345.761 877.768 347.278 877.768 349.148Z" fill="#CFCFCF" fill-rule="nonzero" fill-opacity="1"/><path d="M833.736 359.874C833.736 361.745 832.219 363.261 830.349 363.261 828.478 363.261 826.962 361.745 826.962 359.874 826.962 358.004 828.478 356.487 830.349 356.487 832.219 356.487 833.736 358.004 833.736 359.874Z" fill="#CFCFCF" fill-rule="nonzero" fill-opacity="1"/><path d="M844.744 359.874C844.744 361.745 843.227 363.261 841.357 363.261 839.486 363.261 837.97 361.745 837.97 359.874 837.97 358.004 839.486 356.487 841.357 356.487 843.227 356.487 844.744 358.004 844.744 359.874Z" fill="#737373" fill-rule="nonzero" fill-opacity="1"/><path d="M855.752 359.874C855.752 361.745 854.235 363.261 852.365 363.261 850.495 363.261 848.978 361.745 848.978 359.874 848.978 358.004 850.495 356.487 852.365 356.487 854.235 356.487 855.752 358.004 855.752 359.874Z" fill="#737373" fill-rule="nonzero" fill-opacity="1"/><path d="M866.76 359.874C866.76 361.745 865.244 363.261 863.373 363.261 861.503 363.261 859.986 361.745 859.986 359.874 859.986 358.004 861.503 356.487 863.373 356.487 865.244 356.487 866.76 358.004 866.76 359.874Z" fill="#737373" fill-rule="nonzero" fill-opacity="1"/><path d="M877.768 359.874C877.768 361.745 876.252 363.261 874.381 363.261 872.511 363.261 870.994 361.745 870.994 359.874 870.994 358.004 872.511 356.487 874.381 356.487 876.252 356.487 877.768 358.004 877.768 359.874Z" fill="#CFCFCF" fill-rule="nonzero" fill-opacity="1"/><path d="M833.736 370.6C833.736 372.47 832.219 373.987 830.349 373.987 828.478 373.987 826.962 372.47 826.962 370.6 826.962 368.729 828.478 367.213 830.349 367.213 832.219 367.213 833.736 368.729 833.736 370.6Z" fill="#CFCFCF" fill-rule="nonzero" fill-opacity="1"/><path d="M844.744 370.6C844.744 372.47 843.227 373.987 841.357 373.987 839.486 373.987 837.97 372.47 837.97 370.6 837.97 368.729 839.486 367.213 841.357 367.213 843.227 367.213 844.744 368.729 844.744 370.6Z" fill="#737373" fill-rule="nonzero" fill-opacity="1"/><path d="M855.752 370.6C855.752 372.47 854.235 373.987 852.365 373.987 850.495 373.987 848.978 372.47 848.978 370.6 848.978 368.729 850.495 367.213 852.365 367.213 854.235 367.213 855.752 368.729 855.752 370.6Z" fill="#737373" fill-rule="nonzero" fill-opacity="1"/><path d="M866.76 370.6C866.76 372.47 865.244 373.987 863.373 373.987 861.503 373.987 859.986 372.47 859.986 370.6 859.986 368.729 861.503 367.213 863.373 367.213 865.244 367.213 866.76 368.729 866.76 370.6Z" fill="#737373" fill-rule="nonzero" fill-opacity="1"/><path d="M877.768 370.6C877.768 372.47 876.252 373.987 874.381 373.987 872.511 373.987 870.994 372.47 870.994 370.6 870.994 368.729 872.511 367.213 874.381 367.213 876.252 367.213 877.768 368.729 877.768 370.6Z" fill="#CFCFCF" fill-rule="nonzero" fill-opacity="1"/><path d="M833.736 381.326C833.736 383.196 832.219 384.712 830.349 384.712 828.478 384.712 826.962 383.196 826.962 381.326 826.962 379.455 828.478 377.939 830.349 377.939 832.219 377.939 833.736 379.455 833.736 381.326Z" fill="#CFCFCF" fill-rule="nonzero" fill-opacity="1"/><path d="M844.744 381.326C844.744 383.196 843.227 384.712 841.357 384.712 839.486 384.712 837.97 383.196 837.97 381.326 837.97 379.455 839.486 377.939 841.357 377.939 843.227 377.939 844.744 379.455 844.744 381.326Z" fill="#737373" fill-rule="nonzero" fill-opacity="1"/><path d="M855.752 381.326C855.752 383.196 854.235 384.712 852.365 384.712 850.495 384.712 848.978 383.196 848.978 381.326 848.978 379.455 850.495 377.939 852.365 377.939 854.235 377.939 855.752 379.455 855.752 381.326Z" fill="#CFCFCF" fill-rule="nonzero" fill-opacity="1"/><path d="M866.76 381.326C866.76 383.196 865.244 384.712 863.373 384.712 861.503 384.712 859.986 383.196 859.986 381.326 859.986 379.455 861.503 377.939 863.373 377.939 865.244 377.939 866.76 379.455 866.76 381.326Z" fill="#FF2F92" fill-rule="nonzero" fill-opacity="1"/><path d="M877.768 381.326C877.768 383.196 876.252 384.712 874.381 384.712 872.511 384.712 870.994 383.196 870.994 381.326 870.994 379.455 872.511 377.939 874.381 377.939 876.252 377.939 877.768 379.455 877.768 381.326Z" fill="#CFCFCF" fill-rule="nonzero" fill-opacity="1"/><path d="M842.967 319.714C842.967 320.961 841.956 321.972 840.709 321.972 839.462 321.972 838.451 320.961 838.451 319.714 838.451 318.467 839.462 317.456 840.709 317.456 841.956 317.456 842.967 318.467 842.967 319.714Z" fill="#737373" fill-rule="nonzero" fill-opacity="1"/><path d="M831.959 319.714C831.959 320.961 830.948 321.972 829.701 321.972 828.454 321.972 827.443 320.961 827.443 319.714 827.443 318.467 828.454 317.456 829.701 317.456 830.948 317.456 831.959 318.467 831.959 319.714Z" fill="#CFCFCF" fill-rule="nonzero" fill-opacity="1"/><path d="M825.36 289.977 879.554 289.977 879.554 309.485 825.36 309.485Z" fill="#CFCFCF" fill-rule="nonzero" fill-opacity="1"/><path d="M824.977 281.794 838.749 281.794 838.749 284.599 824.977 284.599Z" fill="#CFCFCF" fill-rule="nonzero" fill-opacity="1"/><path d="M1159.25 251.417 1165 251.417 1165 267.75 1159.25 267.75Z" fill="#737373" fill-rule="nonzero" fill-opacity="1"/><path d="M1153.75 397.833 919.25 397.833C915.384 397.833 912.25 394.699 912.25 390.833L912.25 229.833C912.25 225.968 915.384 222.833 919.25 222.833L1153.75 222.833C1157.62 222.833 1160.75 225.968 1160.75 229.833L1160.75 390.833C1160.75 394.7 1157.62 397.833 1153.75 397.833Z" fill="#737373" fill-rule="nonzero" fill-opacity="1"/><path d="M949 222.25 1124.58 222.25 1124.58 232.167 949 232.167Z" fill="#000000" fill-rule="nonzero" fill-opacity="1"/><path d="M1070.33 386.167 1003.26 386.167C1001.26 386.167 999.65 384.553 999.65 382.561L999.65 340.772C999.65 338.781 1001.26 337.167 1003.26 337.167L1070.33 337.167C1072.32 337.167 1073.93 338.781 1073.93 340.772L1073.93 382.561C1073.93 384.553 1072.32 386.167 1070.33 386.167Z" fill="#505050" fill-rule="nonzero" fill-opacity="1"/><path d="M912.173 251.253 1160.79 251.253 1160.79 330.751 912.173 330.751Z" fill="#D2D2D2" fill-rule="nonzero" fill-opacity="1"/><path d="M964.919 263.083 950.167 263.083C949.522 263.083 949 263.605 949 264.25L949 272.417C949 273.061 949.522 273.583 950.167 273.583L964.919 273.583C965.564 273.583 966.086 273.061 966.086 272.417L966.086 264.25C966.086 263.606 965.564 263.083 964.919 263.083Z" fill="#2F2F2F" fill-rule="nonzero" fill-opacity="1"/><path d="M968.285 272.417 968.285 264.25C968.285 263.605 968.807 263.083 969.452 263.083L977.618 263.083C978.263 263.083 978.785 263.605 978.785 264.25L978.785 272.417C978.785 273.061 978.263 273.583 977.618 273.583L969.452 273.583C968.807 273.583 968.285 273.061 968.285 272.417Z" fill="#2F2F2F" fill-rule="nonzero" fill-opacity="1"/><path d="M980.984 272.417 980.984 264.25C980.984 263.605 981.506 263.083 982.15 263.083L990.317 263.083C990.961 263.083 991.484 263.605 991.484 264.25L991.484 272.417C991.484 273.061 990.961 273.583 990.317 273.583L982.15 273.583C981.506 273.583 980.984 273.061 980.984 272.417Z" fill="#2F2F2F" fill-rule="nonzero" fill-opacity="1"/><path d="M993.682 272.417 993.682 264.25C993.682 263.605 994.204 263.083 994.849 263.083L1003.02 263.083C1003.66 263.083 1004.18 263.605 1004.18 264.25L1004.18 272.417C1004.18 273.061 1003.66 273.583 1003.02 273.583L994.849 273.583C994.204 273.583 993.682 273.061 993.682 272.417Z" fill="#2F2F2F" fill-rule="nonzero" fill-opacity="1"/><path d="M1006.38 272.417 1006.38 264.25C1006.38 263.605 1006.9 263.083 1007.55 263.083L1015.71 263.083C1016.36 263.083 1016.88 263.605 1016.88 264.25L1016.88 272.417C1016.88 273.061 1016.36 273.583 1015.71 273.583L1007.55 273.583C1006.9 273.583 1006.38 273.061 1006.38 272.417Z" fill="#2F2F2F" fill-rule="nonzero" fill-opacity="1"/><path d="M1019.08 272.417 1019.08 264.25C1019.08 263.605 1019.6 263.083 1020.25 263.083L1028.41 263.083C1029.06 263.083 1029.58 263.605 1029.58 264.25L1029.58 272.417C1029.58 273.061 1029.06 273.583 1028.41 273.583L1020.25 273.583C1019.6 273.583 1019.08 273.061 1019.08 272.417Z" fill="#2F2F2F" fill-rule="nonzero" fill-opacity="1"/><path d="M1031.78 272.417 1031.78 264.25C1031.78 263.605 1032.3 263.083 1032.95 263.083L1041.11 263.083C1041.76 263.083 1042.28 263.605 1042.28 264.25L1042.28 272.417C1042.28 273.061 1041.76 273.583 1041.11 273.583L1032.95 273.583C1032.3 273.583 1031.78 273.061 1031.78 272.417Z" fill="#2F2F2F" fill-rule="nonzero" fill-opacity="1"/><path d="M1044.48 272.417 1044.48 264.25C1044.48 263.605 1045 263.083 1045.64 263.083L1053.81 263.083C1054.45 263.083 1054.98 263.605 1054.98 264.25L1054.98 272.417C1054.98 273.061 1054.45 273.583 1053.81 273.583L1045.64 273.583C1045 273.583 1044.48 273.061 1044.48 272.417Z" fill="#2F2F2F" fill-rule="nonzero" fill-opacity="1"/><path d="M1057.18 272.417 1057.18 264.25C1057.18 263.605 1057.7 263.083 1058.34 263.083L1066.51 263.083C1067.15 263.083 1067.68 263.605 1067.68 264.25L1067.68 272.417C1067.68 273.061 1067.15 273.583 1066.51 273.583L1058.34 273.583C1057.7 273.583 1057.18 273.061 1057.18 272.417Z" fill="#2F2F2F" fill-rule="nonzero" fill-opacity="1"/><path d="M1069.87 272.417 1069.87 264.25C1069.87 263.605 1070.4 263.083 1071.04 263.083L1079.21 263.083C1079.85 263.083 1080.37 263.605 1080.37 264.25L1080.37 272.417C1080.37 273.061 1079.85 273.583 1079.21 273.583L1071.04 273.583C1070.4 273.583 1069.87 273.061 1069.87 272.417Z" fill="#2F2F2F" fill-rule="nonzero" fill-opacity="1"/><path d="M1082.57 272.417 1082.57 264.25C1082.57 263.605 1083.1 263.083 1083.74 263.083L1091.91 263.083C1092.55 263.083 1093.07 263.605 1093.07 264.25L1093.07 272.417C1093.07 273.061 1092.55 273.583 1091.91 273.583L1083.74 273.583C1083.1 273.583 1082.57 273.061 1082.57 272.417Z" fill="#2F2F2F" fill-rule="nonzero" fill-opacity="1"/><path d="M1095.27 272.417 1095.27 264.25C1095.27 263.605 1095.79 263.083 1096.44 263.083L1104.61 263.083C1105.25 263.083 1105.77 263.605 1105.77 264.25L1105.77 272.417C1105.77 273.061 1105.25 273.583 1104.61 273.583L1096.44 273.583C1095.79 273.583 1095.27 273.061 1095.27 272.417Z" fill="#2F2F2F" fill-rule="nonzero" fill-opacity="1"/><path d="M958.333 287 950.167 287C949.522 287 949 286.478 949 285.833L949 277.667C949 277.022 949.522 276.5 950.167 276.5L958.333 276.5C958.978 276.5 959.5 277.022 959.5 277.667L959.5 285.833C959.5 286.478 958.978 287 958.333 287Z" fill="#2F2F2F" fill-rule="nonzero" fill-opacity="1"/><path d="M961.699 285.833 961.699 277.667C961.699 277.022 962.221 276.5 962.865 276.5L971.032 276.5C971.677 276.5 972.199 277.022 972.199 277.667L972.199 285.833C972.199 286.478 971.677 287 971.032 287L962.865 287C962.221 287 961.699 286.478 961.699 285.833Z" fill="#2F2F2F" fill-rule="nonzero" fill-opacity="1"/><path d="M974.397 285.833 974.397 277.667C974.397 277.022 974.919 276.5 975.564 276.5L983.73 276.5C984.375 276.5 984.897 277.022 984.897 277.667L984.897 285.833C984.897 286.478 984.375 287 983.73 287L975.564 287C974.92 287 974.397 286.478 974.397 285.833Z" fill="#2F2F2F" fill-rule="nonzero" fill-opacity="1"/><path d="M987.096 285.833 987.096 277.667C987.096 277.022 987.618 276.5 988.263 276.5L996.43 276.5C997.074 276.5 997.596 277.022 997.596 277.667L997.596 285.833C997.596 286.478 997.074 287 996.43 287L988.263 287C987.618 287 987.096 286.478 987.096 285.833Z" fill="#2F2F2F" fill-rule="nonzero" fill-opacity="1"/><path d="M999.795 285.833 999.795 277.667C999.795 277.022 1000.32 276.5 1000.96 276.5L1009.13 276.5C1009.77 276.5 1010.29 277.022 1010.29 277.667L1010.29 285.833C1010.29 286.478 1009.77 287 1009.13 287L1000.96 287C1000.32 287 999.795 286.478 999.795 285.833Z" fill="#2F2F2F" fill-rule="nonzero" fill-opacity="1"/><path d="M1012.49 285.833 1012.49 277.667C1012.49 277.022 1013.02 276.5 1013.66 276.5L1021.83 276.5C1022.47 276.5 1022.99 277.022 1022.99 277.667L1022.99 285.833C1022.99 286.478 1022.47 287 1021.83 287L1013.66 287C1013.02 287 1012.49 286.478 1012.49 285.833Z" fill="#2F2F2F" fill-rule="nonzero" fill-opacity="1"/><path d="M1025.19 285.833 1025.19 277.667C1025.19 277.022 1025.71 276.5 1026.36 276.5L1034.53 276.5C1035.17 276.5 1035.69 277.022 1035.69 277.667L1035.69 285.833C1035.69 286.478 1035.17 287 1034.53 287L1026.36 287C1025.71 287 1025.19 286.478 1025.19 285.833Z" fill="#2F2F2F" fill-rule="nonzero" fill-opacity="1"/><path d="M1037.89 285.833 1037.89 277.667C1037.89 277.022 1038.41 276.5 1039.06 276.5L1047.22 276.5C1047.87 276.5 1048.39 277.022 1048.39 277.667L1048.39 285.833C1048.39 286.478 1047.87 287 1047.22 287L1039.06 287C1038.41 287 1037.89 286.478 1037.89 285.833Z" fill="#2F2F2F" fill-rule="nonzero" fill-opacity="1"/><path d="M1050.59 285.833 1050.59 277.667C1050.59 277.022 1051.11 276.5 1051.76 276.5L1059.92 276.5C1060.57 276.5 1061.09 277.022 1061.09 277.667L1061.09 285.833C1061.09 286.478 1060.57 287 1059.92 287L1051.76 287C1051.11 287 1050.59 286.478 1050.59 285.833Z" fill="#2F2F2F" fill-rule="nonzero" fill-opacity="1"/><path d="M1063.29 285.833 1063.29 277.667C1063.29 277.022 1063.81 276.5 1064.46 276.5L1072.62 276.5C1073.27 276.5 1073.79 277.022 1073.79 277.667L1073.79 285.833C1073.79 286.478 1073.27 287 1072.62 287L1064.46 287C1063.81 287 1063.29 286.478 1063.29 285.833Z" fill="#2F2F2F" fill-rule="nonzero" fill-opacity="1"/><path d="M1075.99 285.833 1075.99 277.667C1075.99 277.022 1076.51 276.5 1077.15 276.5L1085.32 276.5C1085.96 276.5 1086.49 277.022 1086.49 277.667L1086.49 285.833C1086.49 286.478 1085.96 287 1085.32 287L1077.15 287C1076.51 287 1075.99 286.478 1075.99 285.833Z" fill="#2F2F2F" fill-rule="nonzero" fill-opacity="1"/><path d="M1088.69 285.833 1088.69 277.667C1088.69 277.022 1089.21 276.5 1089.85 276.5L1098.02 276.5C1098.66 276.5 1099.19 277.022 1099.19 277.667L1099.19 285.833C1099.19 286.478 1098.66 287 1098.02 287L1089.85 287C1089.21 287 1088.69 286.478 1088.69 285.833Z" fill="#2F2F2F" fill-rule="nonzero" fill-opacity="1"/><path d="M1101.38 285.833 1101.38 277.667C1101.38 277.022 1101.91 276.5 1102.55 276.5L1110.72 276.5C1111.36 276.5 1111.88 277.022 1111.88 277.667L1111.88 285.833C1111.88 286.478 1111.36 287 1110.72 287L1102.55 287C1101.91 287 1101.38 286.478 1101.38 285.833Z" fill="#2F2F2F" fill-rule="nonzero" fill-opacity="1"/><path d="M1123.42 287 1115.25 287C1114.61 287 1114.08 286.478 1114.08 285.833L1114.08 277.667C1114.08 277.022 1114.61 276.5 1115.25 276.5L1123.42 276.5C1124.06 276.5 1124.58 277.022 1124.58 277.667L1124.58 285.833C1124.58 286.478 1124.06 287 1123.42 287Z" fill="#2F2F2F" fill-rule="nonzero" fill-opacity="1"/><path d="M958.333 260.167 950.167 260.167C949.522 260.167 949 259.645 949 259L949 256.083C949 255.439 949.522 254.917 950.167 254.917L958.333 254.917C958.978 254.917 959.5 255.439 959.5 256.083L959.5 259C959.5 259.645 958.978 260.167 958.333 260.167Z" fill="#2F2F2F" fill-rule="nonzero" fill-opacity="1"/><path d="M961.699 259 961.699 256.083C961.699 255.439 962.221 254.917 962.865 254.917L971.032 254.917C971.677 254.917 972.199 255.439 972.199 256.083L972.199 259C972.199 259.645 971.677 260.167 971.032 260.167L962.865 260.167C962.221 260.167 961.699 259.645 961.699 259Z" fill="#2F2F2F" fill-rule="nonzero" fill-opacity="1"/><path d="M974.397 259 974.397 256.083C974.397 255.439 974.919 254.917 975.564 254.917L983.73 254.917C984.375 254.917 984.897 255.439 984.897 256.083L984.897 259C984.897 259.645 984.375 260.167 983.73 260.167L975.564 260.167C974.92 260.167 974.397 259.645 974.397 259Z" fill="#2F2F2F" fill-rule="nonzero" fill-opacity="1"/><path d="M987.096 259 987.096 256.083C987.096 255.439 987.618 254.917 988.263 254.917L996.43 254.917C997.074 254.917 997.596 255.439 997.596 256.083L997.596 259C997.596 259.645 997.074 260.167 996.43 260.167L988.263 260.167C987.618 260.167 987.096 259.645 987.096 259Z" fill="#2F2F2F" fill-rule="nonzero" fill-opacity="1"/><path d="M999.795 259 999.795 256.083C999.795 255.439 1000.32 254.917 1000.96 254.917L1009.13 254.917C1009.77 254.917 1010.29 255.439 1010.29 256.083L1010.29 259C1010.29 259.645 1009.77 260.167 1009.13 260.167L1000.96 260.167C1000.32 260.167 999.795 259.645 999.795 259Z" fill="#2F2F2F" fill-rule="nonzero" fill-opacity="1"/><path d="M1012.49 259 1012.49 256.083C1012.49 255.439 1013.02 254.917 1013.66 254.917L1021.83 254.917C1022.47 254.917 1022.99 255.439 1022.99 256.083L1022.99 259C1022.99 259.645 1022.47 260.167 1021.83 260.167L1013.66 260.167C1013.02 260.167 1012.49 259.645 1012.49 259Z" fill="#2F2F2F" fill-rule="nonzero" fill-opacity="1"/><path d="M1025.19 259 1025.19 256.083C1025.19 255.439 1025.71 254.917 1026.36 254.917L1034.53 254.917C1035.17 254.917 1035.69 255.439 1035.69 256.083L1035.69 259C1035.69 259.645 1035.17 260.167 1034.53 260.167L1026.36 260.167C1025.71 260.167 1025.19 259.645 1025.19 259Z" fill="#2F2F2F" fill-rule="nonzero" fill-opacity="1"/><path d="M1037.89 259 1037.89 256.083C1037.89 255.439 1038.41 254.917 1039.06 254.917L1047.22 254.917C1047.87 254.917 1048.39 255.439 1048.39 256.083L1048.39 259C1048.39 259.645 1047.87 260.167 1047.22 260.167L1039.06 260.167C1038.41 260.167 1037.89 259.645 1037.89 259Z" fill="#2F2F2F" fill-rule="nonzero" fill-opacity="1"/><path d="M1050.59 259 1050.59 256.083C1050.59 255.439 1051.11 254.917 1051.76 254.917L1059.92 254.917C1060.57 254.917 1061.09 255.439 1061.09 256.083L1061.09 259C1061.09 259.645 1060.57 260.167 1059.92 260.167L1051.76 260.167C1051.11 260.167 1050.59 259.645 1050.59 259Z" fill="#2F2F2F" fill-rule="nonzero" fill-opacity="1"/><path d="M1063.29 259 1063.29 256.083C1063.29 255.439 1063.81 254.917 1064.46 254.917L1072.62 254.917C1073.27 254.917 1073.79 255.439 1073.79 256.083L1073.79 259C1073.79 259.645 1073.27 260.167 1072.62 260.167L1064.46 260.167C1063.81 260.167 1063.29 259.645 1063.29 259Z" fill="#2F2F2F" fill-rule="nonzero" fill-opacity="1"/><path d="M1075.99 259 1075.99 256.083C1075.99 255.439 1076.51 254.917 1077.15 254.917L1085.32 254.917C1085.96 254.917 1086.49 255.439 1086.49 256.083L1086.49 259C1086.49 259.645 1085.96 260.167 1085.32 260.167L1077.15 260.167C1076.51 260.167 1075.99 259.645 1075.99 259Z" fill="#2F2F2F" fill-rule="nonzero" fill-opacity="1"/><path d="M1088.69 259 1088.69 256.083C1088.69 255.439 1089.21 254.917 1089.85 254.917L1098.02 254.917C1098.66 254.917 1099.19 255.439 1099.19 256.083L1099.19 259C1099.19 259.645 1098.66 260.167 1098.02 260.167L1089.85 260.167C1089.21 260.167 1088.69 259.645 1088.69 259Z" fill="#2F2F2F" fill-rule="nonzero" fill-opacity="1"/><path d="M1101.38 259 1101.38 256.083C1101.38 255.439 1101.91 254.917 1102.55 254.917L1110.72 254.917C1111.36 254.917 1111.88 255.439 1111.88 256.083L1111.88 259C1111.88 259.645 1111.36 260.167 1110.72 260.167L1102.55 260.167C1101.91 260.167 1101.38 259.645 1101.38 259Z" fill="#2F2F2F" fill-rule="nonzero" fill-opacity="1"/><path d="M1123.42 260.167 1115.25 260.167C1114.61 260.167 1114.08 259.645 1114.08 259L1114.08 256.083C1114.08 255.439 1114.61 254.917 1115.25 254.917L1123.42 254.917C1124.06 254.917 1124.58 255.439 1124.58 256.083L1124.58 259C1124.58 259.645 1124.06 260.167 1123.42 260.167Z" fill="#2F2F2F" fill-rule="nonzero" fill-opacity="1"/><path d="M964.919 289.917 950.167 289.917C949.523 289.917 949 290.439 949 291.083L949 299.25C949 299.894 949.523 300.417 950.167 300.417L964.92 300.417C965.564 300.417 966.086 299.894 966.086 299.25L966.086 291.083C966.086 290.439 965.564 289.917 964.919 289.917Z" fill="#2F2F2F" fill-rule="nonzero" fill-opacity="1"/><path d="M1123.59 289.917 1108.83 289.917C1108.19 289.917 1107.67 290.439 1107.67 291.083L1107.67 299.25C1107.67 299.894 1108.19 300.417 1108.83 300.417L1123.59 300.417C1124.23 300.417 1124.75 299.894 1124.75 299.25L1124.75 291.083C1124.75 290.439 1124.23 289.917 1123.59 289.917Z" fill="#2F2F2F" fill-rule="nonzero" fill-opacity="1"/><path d="M1123.59 263.083 1108.83 263.083C1108.19 263.083 1107.67 263.606 1107.67 264.25L1107.67 272.417C1107.67 273.061 1108.19 273.583 1108.83 273.583L1123.59 273.583C1124.23 273.583 1124.75 273.061 1124.75 272.417L1124.75 264.25C1124.75 263.606 1124.23 263.083 1123.59 263.083Z" fill="#2F2F2F" fill-rule="nonzero" fill-opacity="1"/><path d="M968.285 299.25 968.285 291.083C968.285 290.439 968.807 289.917 969.452 289.917L977.618 289.917C978.263 289.917 978.785 290.439 978.785 291.083L978.785 299.25C978.785 299.895 978.263 300.417 977.618 300.417L969.452 300.417C968.807 300.417 968.285 299.895 968.285 299.25Z" fill="#2F2F2F" fill-rule="nonzero" fill-opacity="1"/><path d="M980.984 299.25 980.984 291.083C980.984 290.439 981.506 289.917 982.15 289.917L990.317 289.917C990.961 289.917 991.484 290.439 991.484 291.083L991.484 299.25C991.484 299.895 990.961 300.417 990.317 300.417L982.15 300.417C981.506 300.417 980.984 299.895 980.984 299.25Z" fill="#2F2F2F" fill-rule="nonzero" fill-opacity="1"/><path d="M993.682 299.25 993.682 291.083C993.682 290.439 994.204 289.917 994.849 289.917L1003.02 289.917C1003.66 289.917 1004.18 290.439 1004.18 291.083L1004.18 299.25C1004.18 299.895 1003.66 300.417 1003.02 300.417L994.849 300.417C994.204 300.417 993.682 299.895 993.682 299.25Z" fill="#2F2F2F" fill-rule="nonzero" fill-opacity="1"/><path d="M1006.38 299.25 1006.38 291.083C1006.38 290.439 1006.9 289.917 1007.55 289.917L1015.71 289.917C1016.36 289.917 1016.88 290.439 1016.88 291.083L1016.88 299.25C1016.88 299.895 1016.36 300.417 1015.71 300.417L1007.55 300.417C1006.9 300.417 1006.38 299.895 1006.38 299.25Z" fill="#2F2F2F" fill-rule="nonzero" fill-opacity="1"/><path d="M1019.08 299.25 1019.08 291.083C1019.08 290.439 1019.6 289.917 1020.25 289.917L1028.41 289.917C1029.06 289.917 1029.58 290.439 1029.58 291.083L1029.58 299.25C1029.58 299.895 1029.06 300.417 1028.41 300.417L1020.25 300.417C1019.6 300.417 1019.08 299.895 1019.08 299.25Z" fill="#2F2F2F" fill-rule="nonzero" fill-opacity="1"/><path d="M1031.78 299.25 1031.78 291.083C1031.78 290.439 1032.3 289.917 1032.95 289.917L1041.11 289.917C1041.76 289.917 1042.28 290.439 1042.28 291.083L1042.28 299.25C1042.28 299.895 1041.76 300.417 1041.11 300.417L1032.95 300.417C1032.3 300.417 1031.78 299.895 1031.78 299.25Z" fill="#2F2F2F" fill-rule="nonzero" fill-opacity="1"/><path d="M1044.48 299.25 1044.48 291.083C1044.48 290.439 1045 289.917 1045.64 289.917L1053.81 289.917C1054.45 289.917 1054.98 290.439 1054.98 291.083L1054.98 299.25C1054.98 299.895 1054.45 300.417 1053.81 300.417L1045.64 300.417C1045 300.417 1044.48 299.895 1044.48 299.25Z" fill="#2F2F2F" fill-rule="nonzero" fill-opacity="1"/><path d="M1057.18 299.25 1057.18 291.083C1057.18 290.439 1057.7 289.917 1058.34 289.917L1066.51 289.917C1067.15 289.917 1067.68 290.439 1067.68 291.083L1067.68 299.25C1067.68 299.895 1067.15 300.417 1066.51 300.417L1058.34 300.417C1057.7 300.417 1057.18 299.895 1057.18 299.25Z" fill="#2F2F2F" fill-rule="nonzero" fill-opacity="1"/><path d="M1069.87 299.25 1069.87 291.083C1069.87 290.439 1070.4 289.917 1071.04 289.917L1079.21 289.917C1079.85 289.917 1080.37 290.439 1080.37 291.083L1080.37 299.25C1080.37 299.895 1079.85 300.417 1079.21 300.417L1071.04 300.417C1070.4 300.417 1069.87 299.895 1069.87 299.25Z" fill="#2F2F2F" fill-rule="nonzero" fill-opacity="1"/><path d="M1082.57 299.25 1082.57 291.083C1082.57 290.439 1083.1 289.917 1083.74 289.917L1091.91 289.917C1092.55 289.917 1093.07 290.439 1093.07 291.083L1093.07 299.25C1093.07 299.895 1092.55 300.417 1091.91 300.417L1083.74 300.417C1083.1 300.417 1082.57 299.895 1082.57 299.25Z" fill="#2F2F2F" fill-rule="nonzero" fill-opacity="1"/><path d="M1095.27 299.25 1095.27 291.083C1095.27 290.439 1095.79 289.917 1096.44 289.917L1104.61 289.917C1105.25 289.917 1105.77 290.439 1105.77 291.083L1105.77 299.25C1105.77 299.895 1105.25 300.417 1104.61 300.417L1096.44 300.417C1095.79 300.417 1095.27 299.895 1095.27 299.25Z" fill="#2F2F2F" fill-rule="nonzero" fill-opacity="1"/><path d="M971.133 313.833 950.167 313.833C949.522 313.833 949 313.311 949 312.667L949 304.5C949 303.855 949.522 303.333 950.167 303.333L971.133 303.333C971.778 303.333 972.3 303.855 972.3 304.5L972.3 312.667C972.299 313.311 971.777 313.833 971.133 313.833Z" fill="#2F2F2F" fill-rule="nonzero" fill-opacity="1"/><path d="M974.397 312.667 974.397 304.5C974.397 303.855 974.919 303.333 975.564 303.333L983.73 303.333C984.375 303.333 984.897 303.855 984.897 304.5L984.897 312.667C984.897 313.311 984.375 313.833 983.73 313.833L975.564 313.833C974.92 313.833 974.397 313.311 974.397 312.667Z" fill="#2F2F2F" fill-rule="nonzero" fill-opacity="1"/><path d="M987.096 312.667 987.096 304.5C987.096 303.855 987.618 303.333 988.263 303.333L996.43 303.333C997.074 303.333 997.596 303.855 997.596 304.5L997.596 312.667C997.596 313.311 997.074 313.833 996.43 313.833L988.263 313.833C987.618 313.833 987.096 313.311 987.096 312.667Z" fill="#2F2F2F" fill-rule="nonzero" fill-opacity="1"/><path d="M999.795 312.667 999.795 304.5C999.795 303.855 1000.32 303.333 1000.96 303.333L1009.13 303.333C1009.77 303.333 1010.29 303.855 1010.29 304.5L1010.29 312.667C1010.29 313.311 1009.77 313.833 1009.13 313.833L1000.96 313.833C1000.32 313.833 999.795 313.311 999.795 312.667Z" fill="#2F2F2F" fill-rule="nonzero" fill-opacity="1"/><path d="M1012.49 312.667 1012.49 304.5C1012.49 303.855 1013.02 303.333 1013.66 303.333L1021.83 303.333C1022.47 303.333 1022.99 303.855 1022.99 304.5L1022.99 312.667C1022.99 313.311 1022.47 313.833 1021.83 313.833L1013.66 313.833C1013.02 313.833 1012.49 313.311 1012.49 312.667Z" fill="#2F2F2F" fill-rule="nonzero" fill-opacity="1"/><path d="M1025.19 312.667 1025.19 304.5C1025.19 303.855 1025.71 303.333 1026.36 303.333L1034.53 303.333C1035.17 303.333 1035.69 303.855 1035.69 304.5L1035.69 312.667C1035.69 313.311 1035.17 313.833 1034.53 313.833L1026.36 313.833C1025.71 313.833 1025.19 313.311 1025.19 312.667Z" fill="#2F2F2F" fill-rule="nonzero" fill-opacity="1"/><path d="M1037.89 312.667 1037.89 304.5C1037.89 303.855 1038.41 303.333 1039.06 303.333L1047.22 303.333C1047.87 303.333 1048.39 303.855 1048.39 304.5L1048.39 312.667C1048.39 313.311 1047.87 313.833 1047.22 313.833L1039.06 313.833C1038.41 313.833 1037.89 313.311 1037.89 312.667Z" fill="#2F2F2F" fill-rule="nonzero" fill-opacity="1"/><path d="M1050.59 312.667 1050.59 304.5C1050.59 303.855 1051.11 303.333 1051.76 303.333L1059.92 303.333C1060.57 303.333 1061.09 303.855 1061.09 304.5L1061.09 312.667C1061.09 313.311 1060.57 313.833 1059.92 313.833L1051.76 313.833C1051.11 313.833 1050.59 313.311 1050.59 312.667Z" fill="#2F2F2F" fill-rule="nonzero" fill-opacity="1"/><path d="M1063.29 312.667 1063.29 304.5C1063.29 303.855 1063.81 303.333 1064.46 303.333L1072.62 303.333C1073.27 303.333 1073.79 303.855 1073.79 304.5L1073.79 312.667C1073.79 313.311 1073.27 313.833 1072.62 313.833L1064.46 313.833C1063.81 313.833 1063.29 313.311 1063.29 312.667Z" fill="#2F2F2F" fill-rule="nonzero" fill-opacity="1"/><path d="M1075.99 312.667 1075.99 304.5C1075.99 303.855 1076.51 303.333 1077.15 303.333L1085.32 303.333C1085.96 303.333 1086.49 303.855 1086.49 304.5L1086.49 312.667C1086.49 313.311 1085.96 313.833 1085.32 313.833L1077.15 313.833C1076.51 313.833 1075.99 313.311 1075.99 312.667Z" fill="#2F2F2F" fill-rule="nonzero" fill-opacity="1"/><path d="M1088.69 312.667 1088.69 304.5C1088.69 303.855 1089.21 303.333 1089.85 303.333L1098.02 303.333C1098.66 303.333 1099.19 303.855 1099.19 304.5L1099.19 312.667C1099.19 313.311 1098.66 313.833 1098.02 313.833L1089.85 313.833C1089.21 313.833 1088.69 313.311 1088.69 312.667Z" fill="#2F2F2F" fill-rule="nonzero" fill-opacity="1"/><path d="M1101.38 312.667 1101.38 304.5C1101.38 303.855 1101.91 303.333 1102.55 303.333L1123.38 303.333C1124.03 303.333 1124.55 303.855 1124.55 304.5L1124.55 312.667C1124.55 313.311 1124.03 313.833 1123.38 313.833L1102.55 313.833C1101.91 313.833 1101.38 313.311 1101.38 312.667Z" fill="#2F2F2F" fill-rule="nonzero" fill-opacity="1"/><path d="M958.333 327.25 950.167 327.25C949.522 327.25 949 326.728 949 326.083L949 317.917C949 317.272 949.522 316.75 950.167 316.75L958.333 316.75C958.978 316.75 959.5 317.272 959.5 317.917L959.5 326.083C959.5 326.728 958.978 327.25 958.333 327.25Z" fill="#2F2F2F" fill-rule="nonzero" fill-opacity="1"/><path d="M961.699 326.083 961.699 317.917C961.699 317.272 962.221 316.75 962.865 316.75L971.032 316.75C971.677 316.75 972.199 317.272 972.199 317.917L972.199 326.083C972.199 326.728 971.677 327.25 971.032 327.25L962.865 327.25C962.221 327.25 961.699 326.728 961.699 326.083Z" fill="#2F2F2F" fill-rule="nonzero" fill-opacity="1"/><path d="M974.397 326.083 974.397 317.917C974.397 317.272 974.919 316.75 975.564 316.75L983.73 316.75C984.375 316.75 984.897 317.272 984.897 317.917L984.897 326.083C984.897 326.728 984.375 327.25 983.73 327.25L975.564 327.25C974.92 327.25 974.397 326.728 974.397 326.083Z" fill="#2F2F2F" fill-rule="nonzero" fill-opacity="1"/><path d="M987.096 326.083 987.096 317.917C987.096 317.272 987.618 316.75 988.263 316.75L996.43 316.75C997.074 316.75 997.596 317.272 997.596 317.917L997.596 326.083C997.596 326.728 997.074 327.25 996.43 327.25L988.263 327.25C987.618 327.25 987.096 326.728 987.096 326.083Z" fill="#2F2F2F" fill-rule="nonzero" fill-opacity="1"/><path d="M999.549 326.083 999.549 317.917C999.549 317.272 1000.07 316.75 1000.72 316.75L1072.67 316.75C1073.31 316.75 1073.83 317.272 1073.83 317.917L1073.83 326.083C1073.83 326.728 1073.31 327.25 1072.67 327.25L1000.72 327.25C1000.07 327.25 999.549 326.728 999.549 326.083Z" fill="#2F2F2F" fill-rule="nonzero" fill-opacity="1"/><path d="M1075.99 326.083 1075.99 317.917C1075.99 317.272 1076.51 316.75 1077.15 316.75L1085.32 316.75C1085.96 316.75 1086.49 317.272 1086.49 317.917L1086.49 326.083C1086.49 326.728 1085.96 327.25 1085.32 327.25L1077.15 327.25C1076.51 327.25 1075.99 326.728 1075.99 326.083Z" fill="#2F2F2F" fill-rule="nonzero" fill-opacity="1"/><path d="M1088.69 326.083 1088.69 323.167C1088.69 322.522 1089.21 322 1089.85 322L1098.02 322C1098.66 322 1099.19 322.522 1099.19 323.167L1099.19 326.083C1099.19 326.728 1098.66 327.25 1098.02 327.25L1089.85 327.25C1089.21 327.25 1088.69 326.728 1088.69 326.083Z" fill="#2F2F2F" fill-rule="nonzero" fill-opacity="1"/><path d="M1101.38 326.083 1101.38 317.917C1101.38 317.272 1101.91 316.75 1102.55 316.75L1110.72 316.75C1111.36 316.75 1111.88 317.272 1111.88 317.917L1111.88 326.083C1111.88 326.728 1111.36 327.25 1110.72 327.25L1102.55 327.25C1101.91 327.25 1101.38 326.728 1101.38 326.083Z" fill="#2F2F2F" fill-rule="nonzero" fill-opacity="1"/><path d="M1123.42 327.25 1115.25 327.25C1114.61 327.25 1114.08 326.728 1114.08 326.083L1114.08 323.167C1114.08 322.522 1114.61 322 1115.25 322L1123.42 322C1124.06 322 1124.58 322.522 1124.58 323.167L1124.58 326.083C1124.58 326.728 1124.06 327.25 1123.42 327.25Z" fill="#2F2F2F" fill-rule="nonzero" fill-opacity="1"/><path d="M1019 397.833 1019 397.833C1019 396.384 1020.18 395.208 1021.62 395.208L1049.04 395.208C1050.49 395.208 1051.67 396.384 1051.67 397.833" fill="#2F2F2F" fill-rule="nonzero" fill-opacity="1"/><path d="M889.324 113.361 889.324 110.142C889.324 105.778 891.725 101.695 896.173 101.695L1177.1 101.695C1181.55 101.695 1183.95 105.195 1183.95 110.142L1183.95 113.945 889.324 113.361Z" fill="#CFCFCF" fill-rule="nonzero" fill-opacity="1"/><path d="M918.615 214.664 1007.43 214.664 1100.18 121.914 899.61 121.914Z" fill="#F2F2F2" fill-rule="nonzero" fill-opacity="1"/><path d="M1154.39 214.373 1172.46 122.206 1097.82 122.206 1005.66 214.373Z" fill="#E6E6E6" fill-rule="nonzero" fill-opacity="1"/><path d="M919.973 213.884 901.287 122.695 1098.5 122.695 1114.52 106.676 1113.64 106.387 896.187 106.387C891.734 106.387 888.413 110.49 889.341 114.845L911.208 217.487C911.896 220.718 914.751 223.029 918.055 223.029L998.169 223.029 1007.31 213.885 919.973 213.885Z" fill="#2F2F2F" fill-rule="nonzero" fill-opacity="1"/><path d="M1177.09 106.386 1113.64 106.386 1097.34 122.695 1171.18 122.695 1153.31 213.884 1006.15 213.884 997.003 223.028 1155.22 223.028C1158.53 223.028 1161.38 220.718 1162.07 217.486L1183.94 114.844C1184.86 110.489 1181.54 106.386 1177.09 106.386Z" fill="#505050" fill-rule="nonzero" fill-opacity="1"/><path d="M1068.02 176.865 1007.35 176.865C1006.39 176.865 1005.6 176.081 1005.6 175.115 1005.6 174.148 1006.39 173.365 1007.35 173.365L1068.02 173.365C1068.99 173.365 1069.77 174.148 1069.77 175.115 1069.77 176.081 1068.99 176.865 1068.02 176.865Z" fill="#FFFFFF" fill-rule="nonzero" fill-opacity="1"/><path d="M1152.99 433.879 1037.68 451.625 1036.44 443.579 1151.75 425.833 1164.48 427.98Z" fill="#FF2F92" fill-rule="nonzero" fill-opacity="1"/><path d="M1055.19 442.642 1125.53 431.817 1125.62 432.394 1055.28 443.218Z" fill="#FFFFFF" fill-rule="nonzero" fill-opacity="1"/><path d="M1243.92 328.417C1243.92 323.262 1239.74 319.083 1234.59 319.083L1188.34 319.083C1183.18 319.083 1179 323.262 1179 328.417L1179 435.809C1179 440.964 1183.18 445.143 1188.34 445.143L1234.59 445.143C1239.74 445.143 1243.92 440.964 1243.92 435.809L1243.92 328.417Z" fill="#505050" fill-rule="nonzero" fill-opacity="1"/><path d="M1233.97 322.059 1224.59 322.059C1223.46 322.059 1222.55 322.974 1222.55 324.101 1222.55 325.229 1221.63 326.143 1220.5 326.143L1202.42 326.143C1201.29 326.143 1200.38 325.229 1200.38 324.101 1200.38 322.974 1199.47 322.059 1198.34 322.059L1188.96 322.059C1185.25 322.059 1182.25 325.063 1182.25 328.769L1182.25 425.309 1182.25 435.004C1182.25 438.71 1185.25 441.714 1188.96 441.714L1233.97 441.714C1237.67 441.714 1240.68 438.71 1240.68 435.004L1240.68 425.309 1240.68 328.769C1240.68 325.064 1237.67 322.059 1233.97 322.059Z" fill="#E6E6E6" fill-rule="nonzero" fill-opacity="1"/><path d="M1182.24 400.917 1182.24 425.322 1182.24 435.021C1182.24 438.728 1185.24 441.733 1188.95 441.733L1233.98 441.733C1237.68 441.733 1240.69 438.728 1240.69 435.021L1240.69 425.322 1240.69 342.481C1240.69 342.473 1240.68 342.471 1240.68 342.477L1182.24 400.917Z" fill="#D2D2D2" fill-rule="nonzero" fill-opacity="1"/><path d="M1226.25 395.5 1195.92 395.5C1194.95 395.5 1194.17 394.717 1194.17 393.75 1194.17 392.783 1194.95 392 1195.92 392L1226.25 392C1227.22 392 1228 392.783 1228 393.75 1228 394.717 1227.22 395.5 1226.25 395.5Z" fill="#FFFFFF" fill-rule="nonzero" fill-opacity="1"/><path d="M1226.25 403.667 1195.92 403.667C1194.95 403.667 1194.17 402.883 1194.17 401.917 1194.17 400.95 1194.95 400.167 1195.92 400.167L1226.25 400.167C1227.22 400.167 1228 400.95 1228 401.917 1228 402.883 1227.22 403.667 1226.25 403.667Z" fill="#FFFFFF" fill-rule="nonzero" fill-opacity="1"/></g></g></g></g></svg>