<svg width="538" height="537" xmlns="http://www.w3.org/2000/svg" xmlns:xlink="http://www.w3.org/1999/xlink" xml:space="preserve" overflow="hidden"><defs><clipPath id="clip0"><rect x="796" y="0" width="538" height="537"/></clipPath></defs><g clip-path="url(#clip0)" transform="translate(-796 0)"><path d="M262.862 453.629 273.53 453.629 273.53 503.972 262.862 503.972Z" fill="#F1F1F1" fill-rule="nonzero" fill-opacity="1" transform="matrix(1.00186 0 0 1 796 0)"/><path d="M236.012 444.119 243.843 444.119 243.843 503.972 236.012 503.972Z" fill="#D1D1D1" fill-rule="nonzero" fill-opacity="1" transform="matrix(1.00186 0 0 1 796 0)"/><path d="M253.911 389.3 259.505 389.3 259.505 503.972 253.911 503.972Z" fill="#737373" fill-rule="nonzero" fill-opacity="1" transform="matrix(1.00186 0 0 1 796 0)"/><path d="M286.915 390.979 293.627 390.979 293.627 503.972 286.915 503.972Z" fill="#737373" fill-rule="nonzero" fill-opacity="1" transform="matrix(1.00186 0 0 1 796 0)"/><path d="M281.122 388.895 283.36 388.895 283.36 503.972 281.122 503.972Z" fill="#D1D1D1" fill-rule="nonzero" fill-opacity="1" transform="matrix(1.00186 0 0 1 796 0)"/><path d="M299.78 422.863 307.611 422.863 307.611 503.972 299.78 503.972Z" fill="#D1D1D1" fill-rule="nonzero" fill-opacity="1" transform="matrix(1.00186 0 0 1 796 0)"/><path d="M198.024 229.833C193.02 223.341 194.895 213.929 201.965 209.782 223.598 197.091 259.562 170.802 235.828 147.068 224.431 135.67 201.63 127.226 176.737 121.058L158.697 164.867C158.697 164.867 142.342 141.006 157.084 116.701 150.743 115.442 144.422 114.316 138.267 113.309L122.703 128.873C122.703 122.213 123.934 116.323 125.628 111.369 97.7938 107.365 76.0303 105.931 76.0303 105.931 76.0303 105.931 77.4237 127.078 81.2984 154.34 86.6662 152.255 93.2959 150.627 100.949 150.627L83.4084 168.168C86.0095 184.085 89.4211 201.112 93.8228 216.731 117.175 204.667 139.316 219.846 139.316 219.846L100.102 235.992C104.875 248.552 110.519 259.08 117.167 265.728 138.142 286.703 161.112 261.052 174.929 239.873 178.851 233.862 186.365 232.211 192.241 235.008 194.806 236.229 197.785 234.4 197.934 231.563L198.024 229.833ZM113.211 193.92C103.788 193.92 96.1498 192.418 96.1498 190.564 96.1498 188.71 103.788 187.208 113.211 187.208 122.633 187.208 130.272 188.71 130.272 190.564 130.272 192.418 122.633 193.92 113.211 193.92Z" fill="#F1F1F1" fill-rule="nonzero" fill-opacity="1" transform="matrix(1.00186 0 0 1 796 0)"/><path d="M262.302 377.553C242.694 325.627 227.096 268.712 188.439 228.88L187.821 228.242 190.985 225.078C231.487 264.385 254.471 322.734 272.93 376.994L262.302 377.553Z" fill="#F1F1F1" fill-rule="nonzero" fill-opacity="1" transform="matrix(1.00186 0 0 1 796 0)"/><path d="M278.524 374.757C295.865 314.904 312.052 268.712 350.709 228.88L351.327 228.242 348.163 225.078C307.661 264.385 282.44 321.615 267.336 374.756" fill="#F1F1F1" fill-rule="nonzero" fill-opacity="1" transform="matrix(1.00186 0 0 1 796 0)"/><path d="M341.22 231.667C341.367 234.455 344.304 236.273 346.816 235.054 352.706 232.195 360.278 233.832 364.22 239.875 378.037 261.054 401.008 286.704 421.982 265.729 428.631 259.082 434.274 248.554 439.047 235.994L399.833 219.847C399.833 219.847 421.975 204.669 445.326 216.733 449.728 201.114 453.14 184.087 455.741 168.169L438.2 150.628C445.853 150.628 452.483 152.256 457.851 154.342 461.725 127.079 463.119 105.933 463.119 105.933 463.119 105.933 441.355 107.366 413.521 111.371 415.215 116.325 416.446 122.214 416.446 128.874L400.882 113.311C394.727 114.317 388.406 115.444 382.065 116.702 396.807 141.008 380.452 164.868 380.452 164.868L362.412 121.059C337.52 127.228 314.718 135.672 303.321 147.069 279.587 170.803 315.551 197.092 337.184 209.784 344.253 213.931 346.129 223.343 341.125 229.834L341.22 231.667ZM408.877 190.564C408.877 188.71 416.515 187.208 425.938 187.208 435.36 187.208 442.999 188.71 442.999 190.564 442.999 192.418 435.36 193.92 425.938 193.92 416.515 193.92 408.877 192.418 408.877 190.564Z" fill="#F1F1F1" fill-rule="nonzero" fill-opacity="1" transform="matrix(1.00186 0 0 1 796 0)"/><path d="M294.186 333.363C293.569 333.363 293.068 332.862 293.068 332.244L293.068 117.444C293.068 116.827 293.569 116.325 294.186 116.325 294.804 116.325 295.305 116.827 295.305 117.444L295.305 332.244C295.305 332.862 294.804 333.363 294.186 333.363Z" fill="#F1F1F1" fill-rule="nonzero" fill-opacity="1" transform="matrix(1.00186 0 0 1 796 0)"/><path d="M281.546 231.546C278.742 232.244 276.54 233.18 274.874 234.278 277.038 217.786 285.219 202.601 298.061 191.677L295.161 188.268C279.057 201.967 269.82 221.952 269.82 243.095L269.82 503.972 274.295 503.972 274.295 247.556C276.747 249.006 280.48 249.406 285.659 248.116 294.593 245.893 299.779 235.806 299.779 235.806 299.779 235.806 290.48 229.323 281.546 231.546Z" fill="#F1F1F1" fill-rule="nonzero" fill-opacity="1" transform="matrix(1.00186 0 0 1 796 0)"/><path d="M366.948 105.754C357.161 113.574 347.324 121.487 338.909 130.783 310.953 162.007 295.083 201.067 286.898 241.876 286.501 241.105 285.897 240.278 285.122 239.503 283.156 237.536 280.854 236.651 279.98 237.525 279.106 238.398 279.991 240.7 281.957 242.666 283.473 244.182 285.186 245.052 286.293 244.972 282.074 267.086 280.071 289.668 279.588 311.754 279.247 325.095 279.354 344.539 279.227 357.958L279.084 376.434C279.078 377.058 279.587 377.567 280.211 377.561 280.829 377.556 281.326 377.052 281.321 376.434 281.321 376.434 281.179 357.958 281.179 357.958 281.14 341.778 280.857 320.982 281.189 304.865 283.058 252.286 293.623 198.032 323.153 153.616 333.605 138.308 351.261 116.334 368.968 110.05 372.744 108.946 370.05 103.633 366.948 105.754Z" fill="#D1D1D1" fill-rule="nonzero" fill-opacity="1" transform="matrix(1.00186 0 0 1 796 0)"/><path d="M383.683 108.225C383.755 107.53 382.864 106.812 381.412 106.248 381.408 106.246 381.408 106.24 381.412 106.238 382.795 105.522 383.604 104.713 383.458 104.03 383.312 103.348 382.243 102.939 380.688 102.852 380.684 102.852 380.682 102.846 380.685 102.842 381.78 101.735 382.299 100.714 381.949 100.11 381.599 99.5061 380.457 99.4479 378.95 99.8451 378.946 99.8462 378.942 99.8417 378.944 99.8372 379.643 98.4455 379.821 97.315 379.302 96.8485 378.783 96.382 377.678 96.6796 376.368 97.5231 376.364 97.5259 376.359 97.5226 376.36 97.5175 376.595 95.9776 376.415 94.8476 375.777 94.5646 375.139 94.2815 374.18 94.9058 373.195 96.1129 373.193 96.1168 373.186 96.1152 373.186 96.1101 372.933 94.573 372.413 93.5538 371.719 93.4816 371.024 93.4095 370.306 94.3 369.742 95.7516 369.74 95.7561 369.734 95.7561 369.732 95.7521 369.016 94.3682 368.207 93.5599 367.524 93.7054 366.841 93.8514 366.433 94.9203 366.345 96.4754 366.345 96.4799 366.339 96.4821 366.336 96.4788 365.228 95.3841 364.208 94.865 363.604 95.2146 362.534 95.8338 363.173 98.9367 365.03 102.145 366.18 104.132 367.527 105.693 368.64 106.447 369.325 106.911 369.766 107.647 369.82 108.453 369.909 109.795 370.594 111.759 371.754 113.765 373.612 116.973 375.984 119.072 377.053 118.453 377.658 118.104 377.716 116.961 377.319 115.454 377.317 115.45 377.322 115.446 377.326 115.448 378.718 116.148 379.849 116.325 380.315 115.806 380.782 115.287 380.484 114.182 379.641 112.873 379.638 112.869 379.641 112.864 379.646 112.865 381.186 113.099 382.316 112.919 382.6 112.282 382.883 111.644 382.258 110.685 381.051 109.7 381.047 109.697 381.049 109.691 381.054 109.691 382.591 109.439 383.61 108.919 383.683 108.225Z" fill="#773ADC" fill-rule="nonzero" fill-opacity="1" transform="matrix(1.00186 0 0 1 796 0)"/><path d="M424.419 169.171C429.236 164.353 426.462 153.782 418.224 145.558 409.986 137.335 399.403 134.574 394.586 139.392 392.404 141.574 391.782 144.938 392.519 148.729 393.188 152.17 386.915 161.835 385.595 165.081 383.824 169.434 383.53 174.632 386.346 177.443 389.163 180.255 394.364 179.957 398.72 178.182 401.966 176.859 411.632 170.582 415.076 171.247 418.871 171.979 422.237 171.354 424.419 169.171Z" fill="#FFFFFF" fill-rule="nonzero" fill-opacity="1" transform="matrix(1.00186 0 0 1 796 0)"/><path d="M414.767 149.763C409.986 144.982 404.278 142.939 402.018 145.199 399.861 147.356 401.632 152.653 405.955 157.29 405.957 157.292 405.961 157.292 405.964 157.29 406.239 156.968 406.516 156.647 406.775 156.307 407.465 155.383 408.107 154.405 408.59 153.252 409.093 152.052 410.429 151.357 411.678 151.717 413.176 152.148 413.927 153.765 413.348 155.164 413.043 155.904 412.418 156.428 411.706 156.643 410.488 157.003 409.434 157.546 408.429 158.144 408.098 158.345 407.784 158.565 407.467 158.782 407.464 158.784 407.464 158.789 407.467 158.791 412.047 162.961 417.209 164.634 419.331 162.512 421.591 160.252 419.548 154.544 414.767 149.763Z" fill="#773ADC" fill-rule="nonzero" fill-opacity="1" transform="matrix(1.00186 0 0 1 796 0)"/><path d="M220.424 159.175C221.051 158.283 221.468 156.714 221.468 154.923 221.468 152.143 220.466 149.888 219.231 149.888 218.085 149.888 217.142 151.826 217.011 154.323 207.988 141.885 196.605 129.193 182.244 116.029 182.894 116.165 183.616 116.243 184.381 116.243 187.162 116.243 189.416 115.241 189.416 114.005 189.417 112.769 187.162 111.768 184.382 111.768 181.981 111.768 179.977 112.515 179.473 113.514 178.545 112.682 177.609 111.848 176.657 111.011L175.181 112.692C176.124 113.521 177.047 114.347 177.967 115.172 177.227 115.994 176.718 117.702 176.718 119.683 176.718 122.463 177.72 124.717 178.955 124.717 180.191 124.717 181.193 122.463 181.193 119.683 181.193 119.085 181.144 118.514 181.059 117.982 249.585 180.975 249.302 233.18 248.933 298.801 248.906 303.671 248.877 308.706 248.877 313.785L251.115 313.785C251.115 308.713 251.143 303.681 251.171 298.814 251.456 247.991 251.691 205.146 220.424 159.175Z" fill="#D1D1D1" fill-rule="nonzero" fill-opacity="1" transform="matrix(1.00186 0 0 1 796 0)"/><path d="M169.289 84.2654C164.848 79.8245 157.352 80.1064 157.227 80.1115 157.224 80.1115 157.225 80.1098 157.225 80.1131 157.223 80.1752 157.141 82.3338 157.737 85.0093 155.062 84.4136 152.903 84.4947 152.841 84.4969 152.838 84.4969 152.84 84.4953 152.839 84.4986 152.837 84.5607 152.755 86.7194 153.351 89.3948 150.676 88.7991 148.517 88.8802 148.455 88.8824 148.452 88.8824 148.454 88.8813 148.453 88.8841 148.448 89.0089 148.166 96.5056 152.606 100.946 157.084 105.425 162.486 107.285 164.67 105.1 165.481 104.289 165.733 103.033 165.501 101.546 166.988 101.778 168.244 101.527 169.055 100.715 169.867 99.9038 170.118 98.6475 169.887 97.1606 171.373 97.3922 172.63 97.1411 173.441 96.3294 175.626 94.1451 173.766 88.7437 169.289 84.2654Z" fill="#773ADC" fill-rule="nonzero" fill-opacity="1" transform="matrix(1.00186 0 0 1 796 0)"/><path d="M175.921 103.48C172.53 99.241 167.708 96.9089 163.405 95.3885 156.647 93.0006 150.062 93.6092 145.992 97.6797 145.576 98.0959 145.195 98.5384 144.851 99.0049 146.386 101.798 148.42 104.532 150.926 107.038 160.176 116.288 172.531 119.149 179.53 113.979 179.996 113.635 178.161 106.281 175.921 103.48Z" fill="#E5E5E5" fill-rule="nonzero" fill-opacity="1" transform="matrix(1.00186 0 0 1 796 0)"/><path d="M175.054 82.9089C172.549 80.4034 169.815 78.369 167.022 76.8335 166.555 77.1781 166.113 77.5579 165.696 77.9746 161.626 82.0452 161.017 88.6307 163.405 95.388 164.926 99.6912 167.659 104.065 171.497 107.903 174.003 110.409 176.736 112.443 179.53 113.979 179.996 113.634 180.439 113.254 180.855 112.838 181.271 112.422 181.651 111.979 181.996 111.513 187.165 104.515 184.304 92.1593 175.054 82.9089Z" fill="#D1D1D1" fill-rule="nonzero" fill-opacity="1" transform="matrix(1.00186 0 0 1 796 0)"/><path d="M216.65 121.992C213.977 120.589 207.341 127.962 201.826 138.461 201.324 139.418 200.849 140.368 200.401 141.305 200.398 141.31 200.391 141.309 200.39 141.303 200.286 140.367 200.166 139.416 200.025 138.45 198.315 126.715 194.508 117.554 191.52 117.99 188.533 118.425 187.498 128.291 189.208 140.026 189.419 141.476 189.663 142.887 189.933 144.245 189.934 144.251 189.927 144.254 189.923 144.25 188.961 143.149 187.934 142.034 186.849 140.922 178.568 132.433 170.103 127.26 167.942 129.368 165.781 131.476 170.743 140.066 179.024 148.555 180.048 149.605 181.074 150.603 182.091 151.544 182.095 151.548 182.092 151.554 182.086 151.553 180.66 151.228 179.175 150.929 177.642 150.668 165.953 148.667 156.064 149.458 155.555 152.434 155.046 155.409 164.109 159.443 175.799 161.442 177.244 161.69 178.661 161.894 180.037 162.057 180.042 162.058 180.043 162.065 180.038 162.067 178.693 162.643 177.316 163.275 175.922 163.963 165.29 169.215 157.755 175.667 159.092 178.374 160.429 181.08 170.132 179.016 180.764 173.764 183.496 172.414 186.024 170.988 188.248 169.562 192.314 166.954 195.037 159.757 196.677 158.228 198.318 156.699 204.62 154.536 206.664 151.585 208.288 149.24 209.943 146.518 211.505 143.543 217.018 133.045 219.322 123.396 216.65 121.992Z" fill="#773ADC" fill-rule="nonzero" fill-opacity="1" transform="matrix(1.00186 0 0 1 796 0)"/><path d="M244.283 216.035C238.772 202.16 230.625 189.771 220.089 179.235L205.714 164.561C202.539 161.307 201.639 159.218 204.175 155.109L206.704 151.551C202.187 146.92 194.461 147.677 189.831 152.194 185.201 156.711 183.751 164.922 188.268 169.553L191.879 167.104C196.057 164.118 198.861 165.364 202.324 168.913L216.135 183.191C226.128 193.185 233.856 204.936 239.084 218.096 244.004 230.484 246.361 243.742 246.361 257.072L246.361 266.798 238.827 266.798C238.826 266.803 238.826 266.803 238.824 266.808L246.361 272.026 246.361 400.488 251.955 400.488 251.955 257.121C251.954 243.069 249.47 229.093 244.283 216.035Z" fill="#D1D1D1" fill-rule="nonzero" fill-opacity="1" transform="matrix(1.00186 0 0 1 796 0)"/><path d="M232.88 276.925C222.899 256.861 210.528 238.22 196.111 221.52 187.476 211.518 178.074 202.187 168.008 193.599 168.541 192.678 168.887 191.234 168.887 189.604 168.887 186.823 167.885 184.57 166.65 184.57 165.414 184.57 164.412 186.823 164.412 189.604 164.412 189.954 164.428 190.295 164.458 190.625 158.353 185.6 152.019 180.839 145.464 176.373L144.204 178.222C162.85 190.927 179.745 205.986 194.418 222.983 208.713 239.542 220.979 258.026 230.877 277.922 250.338 317.044 260.625 361.948 260.625 407.782L260.625 503.973 262.862 503.973 262.862 407.781C262.862 361.603 252.494 316.355 232.88 276.925Z" fill="#D1D1D1" fill-rule="nonzero" fill-opacity="1" transform="matrix(1.00186 0 0 1 796 0)"/><path d="M122.126 165.55 127.489 183.45C128.507 186.849 126.578 190.429 123.179 191.447 119.781 192.465 116.201 190.536 115.183 187.138 114.808 185.886 114.832 184.614 115.183 183.45L120.546 165.55C120.677 165.114 121.136 164.867 121.572 164.997 121.846 165.079 122.047 165.296 122.126 165.55Z" fill="#773ADC" fill-rule="nonzero" fill-opacity="1" transform="matrix(1.00186 0 0 1 796 0)"/><path d="M124.934 164.125 139.795 175.454C142.616 177.604 143.159 181.635 141.008 184.456 138.858 187.278 134.827 187.821 132.006 185.67 130.966 184.878 130.239 183.835 129.838 182.687L123.656 165.053C123.506 164.624 123.732 164.153 124.161 164.003 124.431 163.908 124.722 163.965 124.934 164.125Z" fill="#773ADC" fill-rule="nonzero" fill-opacity="1" transform="matrix(1.00186 0 0 1 796 0)"/><path d="M126.368 161.32 145.049 161.751C148.596 161.832 151.405 164.773 151.323 168.32 151.242 171.867 148.3 174.676 144.753 174.594 143.447 174.564 142.245 174.148 141.247 173.455L125.88 162.822C125.506 162.563 125.412 162.05 125.671 161.676 125.834 161.441 126.102 161.316 126.368 161.32Z" fill="#773ADC" fill-rule="nonzero" fill-opacity="1" transform="matrix(1.00186 0 0 1 796 0)"/><path d="M125.88 158.209 141.247 147.577C144.164 145.558 148.165 146.287 150.184 149.204 152.203 152.121 151.474 156.122 148.557 158.141 147.482 158.884 146.265 159.254 145.05 159.28L126.368 159.711C125.913 159.721 125.536 159.36 125.525 158.906 125.518 158.62 125.662 158.362 125.88 158.209Z" fill="#773ADC" fill-rule="nonzero" fill-opacity="1" transform="matrix(1.00186 0 0 1 796 0)"/><path d="M123.657 155.979 129.839 138.345C131.012 134.997 134.678 133.235 138.026 134.409 141.374 135.583 143.136 139.248 141.962 142.596 141.53 143.829 140.763 144.843 139.795 145.579L124.934 156.908C124.572 157.184 124.055 157.114 123.779 156.752 123.606 156.524 123.57 156.231 123.657 155.979Z" fill="#773ADC" fill-rule="nonzero" fill-opacity="1" transform="matrix(1.00186 0 0 1 796 0)"/><path d="M120.546 155.482 115.183 137.582C114.165 134.183 116.094 130.603 119.493 129.585 122.891 128.567 126.471 130.496 127.489 133.894 127.864 135.146 127.84 136.418 127.489 137.582L122.126 155.482C121.995 155.918 121.536 156.165 121.1 156.035 120.826 155.953 120.625 155.736 120.546 155.482Z" fill="#773ADC" fill-rule="nonzero" fill-opacity="1" transform="matrix(1.00186 0 0 1 796 0)"/><path d="M117.738 156.907 102.878 145.578C100.057 143.427 99.5134 139.397 101.664 136.575 103.815 133.754 107.845 133.211 110.667 135.361 111.706 136.154 112.434 137.197 112.834 138.345L119.017 155.978C119.167 156.408 118.941 156.878 118.511 157.029 118.241 157.124 117.951 157.067 117.738 156.907Z" fill="#773ADC" fill-rule="nonzero" fill-opacity="1" transform="matrix(1.00186 0 0 1 796 0)"/><path d="M116.304 159.711 97.6227 159.281C94.0762 159.199 91.2671 156.258 91.3487 152.711 91.4304 149.165 94.3716 146.355 97.9186 146.437 99.2247 146.467 100.427 146.883 101.425 147.577L116.792 158.209C117.166 158.468 117.26 158.982 117.001 159.356 116.838 159.591 116.57 159.716 116.304 159.711Z" fill="#773ADC" fill-rule="nonzero" fill-opacity="1" transform="matrix(1.00186 0 0 1 796 0)"/><path d="M116.792 162.822 101.425 173.455C98.5082 175.474 94.507 174.745 92.4882 171.828 90.4694 168.911 91.1983 164.909 94.1154 162.891 95.19 162.147 96.4072 161.777 97.6221 161.751L116.304 161.321C116.759 161.31 117.136 161.671 117.147 162.126 117.154 162.412 117.009 162.67 116.792 162.822Z" fill="#773ADC" fill-rule="nonzero" fill-opacity="1" transform="matrix(1.00186 0 0 1 796 0)"/><path d="M119.016 165.053 112.834 182.687C111.66 186.035 107.995 187.797 104.647 186.623 101.299 185.45 99.5363 181.784 100.71 178.436 101.143 177.203 101.91 176.189 102.878 175.453L117.738 164.124C118.1 163.848 118.618 163.918 118.893 164.28 119.067 164.508 119.102 164.801 119.016 165.053Z" fill="#773ADC" fill-rule="nonzero" fill-opacity="1" transform="matrix(1.00186 0 0 1 796 0)"/><path d="M243.843 378.113C242.778 340.794 240.002 312.536 214.975 282.483 203.969 270.187 192.528 258.011 184.292 243.56L172.499 255.353C202.979 274.403 222.75 294.448 231.712 320.984 230.678 320.254 229.512 319.493 228.202 318.701 219.715 313.569 210.539 313.225 210.539 313.225 210.539 313.225 215.121 321.202 223.607 326.334 228.499 329.292 232.085 330.684 234.494 330.935 236.638 340.471 237.548 350.823 237.21 362.21 234.101 358.986 229.245 355.253 222.305 351.078 206.008 341.273 188.388 340.635 188.388 340.635 188.388 340.635 197.192 355.895 213.49 365.7 224.34 372.228 231.859 374.773 236.394 374.557 236.394 375.789 236.448 378.113 236.448 378.113L243.843 378.113Z" fill="#D1D1D1" fill-rule="nonzero" fill-opacity="1" transform="matrix(1.00186 0 0 1 796 0)"/><path d="M229.298 365.807C229.201 365.807 229.101 365.781 229.011 365.727 228.871 365.643 214.865 357.217 203.229 348.351 202.983 348.164 202.936 347.813 203.123 347.567 203.31 347.322 203.661 347.275 203.907 347.461 215.493 356.289 229.447 364.684 229.587 364.767 229.852 364.926 229.938 365.27 229.779 365.535 229.674 365.71 229.489 365.807 229.298 365.807Z" fill="#E5E5E5" fill-rule="nonzero" fill-opacity="1" transform="matrix(1.00186 0 0 1 796 0)"/><path d="M211.605 248.603C209.552 248.144 207.536 247.749 205.577 247.417 205.571 247.415 205.571 247.408 205.576 247.406 207.544 246.679 209.563 245.872 211.61 244.986 227.203 238.236 238.45 229.545 236.732 225.576 235.014 221.608 220.98 223.862 205.387 230.613 203.457 231.449 201.594 232.314 199.813 233.196 199.808 233.199 199.803 233.193 199.807 233.188 200.972 231.443 202.131 229.604 203.266 227.684 211.913 213.058 215.904 199.416 212.181 197.215 208.458 195.014 198.43 205.087 189.783 219.714 188.713 221.524 187.714 223.319 186.792 225.08 186.789 225.085 186.782 225.083 186.782 225.077 186.699 222.98 186.555 220.812 186.345 218.591 184.744 201.676 179.954 188.293 175.648 188.701 171.342 189.109 169.151 203.152 170.752 220.068 170.95 222.162 171.198 224.201 171.486 226.168 171.487 226.173 171.48 226.176 171.477 226.172 170.177 224.524 168.786 222.853 167.311 221.181 156.072 208.437 144.332 200.426 141.088 203.286 137.845 206.147 144.325 218.797 155.564 231.54 156.956 233.118 158.355 234.623 159.744 236.043 159.748 236.047 159.744 236.054 159.738 236.052 157.719 235.483 155.611 234.949 153.435 234.463 136.852 230.76 122.645 231.178 121.702 235.4 120.76 239.621 133.438 246.045 150.021 249.749 152.074 250.207 154.09 250.602 156.049 250.935 156.054 250.936 156.055 250.943 156.05 250.946 154.082 251.673 152.063 252.479 150.016 253.366 134.423 260.116 123.175 268.807 124.894 272.775 126.612 276.745 140.646 274.489 156.238 267.739 158.169 266.903 160.032 266.038 161.813 265.155 161.818 265.153 161.823 265.159 161.819 265.163 160.654 266.909 159.495 268.748 158.36 270.668 149.713 285.294 145.722 298.936 149.445 301.137 153.168 303.338 163.196 293.265 171.843 278.638 172.913 276.827 173.912 275.032 174.834 273.272 174.837 273.267 174.844 273.269 174.844 273.274 174.927 275.371 175.07 277.54 175.281 279.76 176.882 296.676 181.672 310.058 185.978 309.65 190.284 309.243 192.475 295.2 190.874 278.283 190.047 269.547 188.368 261.76 186.346 256.321 191.495 259.12 199.277 261.897 208.191 263.888 224.774 267.592 238.981 267.173 239.924 262.952 240.866 258.732 228.188 252.307 211.605 248.603Z" fill="#773ADC" fill-rule="nonzero" fill-opacity="1" transform="matrix(1.00186 0 0 1 796 0)"/><path d="M189.235 249.219C189.235 253.854 185.477 257.611 180.843 257.611 176.208 257.611 172.451 253.854 172.451 249.219 172.451 244.584 176.208 240.827 180.843 240.827 185.477 240.827 189.235 244.584 189.235 249.219Z" fill="#FFFFFF" fill-rule="nonzero" fill-opacity="1" transform="matrix(0.96934 -0.252258 0.252727 0.967538 738.88 53.675)"/><path d="M451.53 135.502C451.53 136.429 450.778 137.181 449.852 137.181 448.925 137.181 448.173 136.429 448.173 135.502 448.173 134.576 448.925 133.824 449.852 133.824 450.778 133.824 451.53 134.576 451.53 135.502Z" fill="#773ADC" fill-rule="nonzero" fill-opacity="1" transform="matrix(1.00186 0 0 1 796 0)"/><path d="M1244.82 137.37C1245.25 137.807 1244.81 138.958 1243.83 139.941 1242.84 140.924 1241.69 141.367 1241.25 140.93 1240.81 140.493 1241.26 139.342 1242.24 138.359 1243.23 137.376 1244.38 136.933 1244.82 137.37Z" fill="#FFFFFF" fill-rule="nonzero" fill-opacity="1"/><path d="M450.97 140.658C450.97 142.048 450.469 143.175 449.852 143.175 449.234 143.175 448.733 142.048 448.733 140.658 448.733 139.268 449.234 138.141 449.852 138.141 450.469 138.141 450.97 139.268 450.97 140.658Z" fill="#FFFFFF" fill-rule="nonzero" fill-opacity="1" transform="matrix(1.00186 0 0 1 796 0)"/><path d="M1251.13 138.359C1252.11 139.342 1252.56 140.493 1252.12 140.93 1251.68 141.367 1250.53 140.924 1249.54 139.941 1248.56 138.958 1248.12 137.807 1248.55 137.37 1248.99 136.933 1250.15 137.376 1251.13 138.359Z" fill="#FFFFFF" fill-rule="nonzero" fill-opacity="1"/><path d="M457.524 135.502C457.524 136.12 456.397 136.621 455.007 136.621 453.617 136.621 452.49 136.12 452.49 135.502 452.49 134.885 453.617 134.384 455.007 134.384 456.397 134.384 457.524 134.885 457.524 135.502Z" fill="#FFFFFF" fill-rule="nonzero" fill-opacity="1" transform="matrix(1.00186 0 0 1 796 0)"/><path d="M1252.12 130.079C1252.56 130.516 1252.11 131.667 1251.13 132.65 1250.15 133.633 1248.99 134.076 1248.55 133.639 1248.12 133.202 1248.56 132.051 1249.55 131.068 1250.53 130.085 1251.68 129.643 1252.12 130.079Z" fill="#FFFFFF" fill-rule="nonzero" fill-opacity="1"/><path d="M450.97 130.347C450.97 131.737 450.469 132.864 449.852 132.864 449.234 132.864 448.733 131.737 448.733 130.347 448.733 128.957 449.234 127.83 449.852 127.83 450.469 127.83 450.97 128.957 450.97 130.347Z" fill="#FFFFFF" fill-rule="nonzero" fill-opacity="1" transform="matrix(1.00186 0 0 1 796 0)"/><path d="M1243.83 131.068C1244.81 132.051 1245.25 133.202 1244.82 133.639 1244.38 134.076 1243.23 133.633 1242.24 132.65 1241.26 131.667 1240.81 130.516 1241.25 130.079 1241.69 129.642 1242.84 130.085 1243.83 131.068Z" fill="#FFFFFF" fill-rule="nonzero" fill-opacity="1"/><path d="M447.213 135.502C447.213 136.12 446.086 136.621 444.696 136.621 443.306 136.621 442.179 136.12 442.179 135.502 442.179 134.885 443.306 134.384 444.696 134.384 446.086 134.384 447.213 134.885 447.213 135.502Z" fill="#FFFFFF" fill-rule="nonzero" fill-opacity="1" transform="matrix(1.00186 0 0 1 796 0)"/><path d="M437.788 121.201C437.788 122.128 437.036 122.879 436.109 122.879 435.183 122.879 434.431 122.128 434.431 121.201 434.431 120.274 435.183 119.523 436.109 119.523 437.036 119.523 437.788 120.274 437.788 121.201Z" fill="#773ADC" fill-rule="nonzero" fill-opacity="1" transform="matrix(1.00186 0 0 1 796 0)"/><path d="M1231.05 123.069C1231.49 123.505 1231.04 124.657 1230.06 125.64 1229.07 126.623 1227.92 127.065 1227.48 126.628 1227.04 126.191 1227.49 125.04 1228.47 124.057 1229.46 123.074 1230.61 122.632 1231.05 123.069Z" fill="#FFFFFF" fill-rule="nonzero" fill-opacity="1"/><path d="M437.228 126.357C437.228 127.747 436.727 128.874 436.109 128.874 435.492 128.874 434.991 127.747 434.991 126.357 434.991 124.966 435.492 123.839 436.109 123.839 436.727 123.839 437.228 124.966 437.228 126.357Z" fill="#FFFFFF" fill-rule="nonzero" fill-opacity="1" transform="matrix(1.00186 0 0 1 796 0)"/><path d="M1237.36 124.057C1238.35 125.04 1238.79 126.191 1238.35 126.628 1237.92 127.065 1236.76 126.622 1235.78 125.639 1234.79 124.656 1234.35 123.505 1234.79 123.068 1235.22 122.631 1236.38 123.074 1237.36 124.057Z" fill="#FFFFFF" fill-rule="nonzero" fill-opacity="1"/><path d="M443.782 121.201C443.782 121.819 442.655 122.32 441.265 122.32 439.874 122.32 438.747 121.819 438.747 121.201 438.747 120.583 439.874 120.082 441.265 120.082 442.655 120.082 443.782 120.583 443.782 121.201Z" fill="#FFFFFF" fill-rule="nonzero" fill-opacity="1" transform="matrix(1.00186 0 0 1 796 0)"/><path d="M1238.35 115.778C1238.79 116.215 1238.35 117.366 1237.36 118.349 1236.38 119.332 1235.22 119.775 1234.79 119.338 1234.35 118.901 1234.79 117.75 1235.78 116.767 1236.76 115.784 1237.92 115.341 1238.35 115.778Z" fill="#FFFFFF" fill-rule="nonzero" fill-opacity="1"/><path d="M437.228 116.046C437.228 117.436 436.727 118.563 436.109 118.563 435.492 118.563 434.991 117.436 434.991 116.046 434.991 114.655 435.492 113.529 436.109 113.529 436.727 113.529 437.228 114.655 437.228 116.046Z" fill="#FFFFFF" fill-rule="nonzero" fill-opacity="1" transform="matrix(1.00186 0 0 1 796 0)"/><path d="M1230.06 116.766C1231.04 117.749 1231.49 118.9 1231.05 119.337 1230.61 119.774 1229.46 119.331 1228.47 118.348 1227.49 117.365 1227.04 116.214 1227.48 115.777 1227.92 115.341 1229.07 115.783 1230.06 116.766Z" fill="#FFFFFF" fill-rule="nonzero" fill-opacity="1"/><path d="M433.471 121.201C433.471 121.819 432.344 122.32 430.954 122.32 429.563 122.32 428.436 121.819 428.436 121.201 428.436 120.583 429.563 120.082 430.954 120.082 432.344 120.082 433.471 120.583 433.471 121.201Z" fill="#FFFFFF" fill-rule="nonzero" fill-opacity="1" transform="matrix(1.00186 0 0 1 796 0)"/><path d="M231.488 123.645 231.171 123.328 231.171 81.9814C231.171 81.3639 230.669 80.8627 230.052 80.8627 229.434 80.8627 228.933 81.3639 228.933 81.9814L228.933 121.09 217.283 109.439C217.882 109.551 218.539 109.613 219.23 109.613 222.01 109.613 224.264 108.612 224.265 107.376 224.265 106.14 222.011 105.138 219.23 105.138 217.025 105.138 215.155 105.77 214.474 106.648 214.035 106.289 213.389 106.31 212.98 106.719 212.636 107.063 212.567 107.575 212.765 107.99 211.678 108.332 210.84 110.428 210.84 112.97 210.84 115.75 211.841 118.004 213.077 118.004 214.313 118.004 215.315 115.75 215.315 112.97 215.315 111.984 215.187 111.067 214.969 110.291L229.906 125.228C230.124 125.447 230.41 125.556 230.697 125.556 230.983 125.556 231.27 125.447 231.488 125.228 231.926 124.79 231.926 124.082 231.488 123.645Z" fill="#D1D1D1" fill-rule="nonzero" fill-opacity="1" transform="matrix(1.00186 0 0 1 796 0)"/><path d="M212.97 91.2508C211.051 89.7014 208.612 88.7689 205.952 88.7695 199.773 88.7695 194.764 93.7781 194.764 99.957 194.764 102.328 195.507 104.524 196.766 106.333 198.786 109.239 208.834 112.397 213.42 107.176 217.742 102.258 215.511 93.3021 212.97 91.2508Z" fill="#737373" fill-rule="nonzero" fill-opacity="1" transform="matrix(1.00186 0 0 1 796 0)"/><path d="M205.66 101.259C201.932 101.419 198.678 103.394 196.766 106.333 198.786 109.239 202.145 111.144 205.952 111.144 207.308 111.144 208.602 110.891 209.805 110.449 212.088 109.61 212.414 106.244 211.481 104.155 209.46 101.25 205.821 101.252 205.66 101.259Z" fill="#505050" fill-rule="nonzero" fill-opacity="1" transform="matrix(1.00186 0 0 1 796 0)"/><path d="M212.97 91.2508C208.838 92.7695 205.857 96.6488 205.66 101.259 205.653 101.421 205.635 101.58 205.635 101.743 205.635 105.262 207.264 108.398 209.805 110.449 212.088 109.61 214.022 108.054 215.33 106.046 216.47 104.293 217.139 102.205 217.139 99.957 217.139 96.4374 215.511 93.3021 212.97 91.2508Z" fill="#2F2F2F" fill-rule="nonzero" fill-opacity="1" transform="matrix(1.00186 0 0 1 796 0)"/><path d="M240.982 71.5966C240.72 69.1432 239.655 66.7597 237.774 64.8791 233.405 60.5098 226.321 60.5098 221.953 64.8791 220.276 66.5561 219.249 68.6336 218.859 70.8034 218.233 74.2861 221.512 82.6197 229.791 82.7316 237.566 82.8367 241.329 74.8433 240.982 71.5966Z" fill="#737373" fill-rule="nonzero" fill-opacity="1" transform="matrix(1.00186 0 0 1 796 0)"/><path d="M221.953 80.7005C222.912 81.6592 224.006 82.3948 225.169 82.9329 229.008 83.4028 231.022 80.9416 231.19 78.1447 231.347 75.5179 228.617 73.6138 228.736 73.5041 225.987 70.9808 222.29 70.0768 218.859 70.8029 218.233 74.2861 219.26 78.0082 221.953 80.7005Z" fill="#505050" fill-rule="nonzero" fill-opacity="1" transform="matrix(1.00186 0 0 1 796 0)"/><path d="M240.982 71.5966C236.986 69.7485 232.136 70.3839 228.736 73.5047 228.617 73.6138 228.492 73.7139 228.376 73.8291 225.888 76.3178 224.822 79.6863 225.169 82.9329 227.376 83.9544 229.844 84.2223 232.189 83.7261 234.235 83.2932 236.185 82.2897 237.774 80.7005 240.263 78.2118 241.329 74.8433 240.982 71.5966Z" fill="#D1D1D1" fill-rule="nonzero" fill-opacity="1" transform="matrix(1.00186 0 0 1 796 0)"/><path d="M276.581 81.7666C276.45 79.5744 276.121 77.3851 275.31 75.2348 275.19 74.916 274.918 74.6497 274.519 74.5546 274.087 74.4517 273.638 74.6559 273.395 75.0273L273.386 75.0413C272.157 76.9202 271.229 78.7404 270.31 80.5215 269.406 82.3036 268.554 84.045 267.754 85.7846 266.148 89.26 264.641 92.7114 263.227 96.3406 261.821 99.9631 260.607 103.83 259.501 107.847L257.994 113.195C257.992 113.201 257.983 113.2 257.983 113.193 258.084 110.659 258.183 108.124 258.289 105.589 258.522 99.5475 258.914 93.5057 258.921 87.4639 258.924 84.4427 258.842 81.4221 258.678 78.4014 258.562 76.8911 258.367 75.3808 258.018 73.8699 257.672 72.3596 257.219 70.8493 256.464 69.3384 256.414 69.2372 256.331 69.1511 256.223 69.0968 255.956 68.9637 255.632 69.0716 255.498 69.3384 254.743 70.8488 254.291 72.3596 253.944 73.8699 253.595 75.3802 253.4 76.8911 253.284 78.4014 253.121 81.4226 253.039 84.4433 253.042 87.4639 253.048 93.5057 253.439 99.5475 253.673 105.589 253.779 108.124 253.878 110.659 253.98 113.193 253.98 113.2 253.971 113.202 253.969 113.195L252.461 107.847C251.356 103.83 250.141 99.9631 248.735 96.3406 247.32 92.7119 245.814 89.2606 244.209 85.7846 243.409 84.0444 242.557 82.3031 241.653 80.5215 240.734 78.7404 239.805 76.9202 238.576 75.0413L238.566 75.0256C238.415 74.7935 238.172 74.6167 237.865 74.5557 237.345 74.4522 236.823 74.7795 236.637 75.2757 235.836 77.413 235.511 79.5884 235.381 81.7672 235.265 83.9583 235.388 86.1521 235.738 88.2962 236.425 92.5933 237.928 96.6874 239.907 100.412 241.89 104.149 244.456 107.451 247.069 110.63 247.719 111.429 248.358 112.229 248.987 113.032 249.623 113.833 250.242 114.641 250.832 115.465 251.993 117.081 253.057 118.752 253.994 120.49 254.323 124.656 254.587 128.823 254.776 132.994 254.869 135.117 254.946 137.24 254.991 139.366 255.025 141.492 255.064 143.617 255.015 145.746 255.015 145.785 255.016 145.83 255.02 145.869 255.087 146.512 255.769 146.942 256.42 146.637 256.784 146.467 256.986 146.067 256.947 145.668L256.946 145.655C256.9 143.557 256.939 141.462 256.971 139.367 257.016 137.242 257.093 135.118 257.186 132.994 257.375 128.824 257.639 124.656 257.968 120.491 258.904 118.753 259.968 117.082 261.13 115.465 261.72 114.642 262.338 113.834 262.975 113.033 263.604 112.23 264.243 111.429 264.893 110.631 267.505 107.452 270.072 104.15 272.055 100.412 274.034 96.688 275.537 92.5939 276.224 88.2968 276.574 86.1516 276.698 83.9577 276.581 81.7666Z" fill="#E5E5E5" fill-rule="nonzero" fill-opacity="1" transform="matrix(1.00186 0 0 1 796 0)"/><path d="M270.66 108.505C270.66 108.505 261.55 125.43 256.64 144.319 256.549 144.664 256.219 146 256.173 146.186 256.171 146.192 256.164 146.192 256.162 146.186 256.116 145.999 255.78 144.644 255.688 144.289 250.775 125.412 241.674 108.505 241.674 108.505 227.972 110.136 221.996 129.706 227.393 150.54 227.964 152.743 228.642 154.869 229.407 156.911 246.311 178.591 266.821 177.844 282.923 156.923 283.69 154.877 284.37 152.747 284.942 150.54 290.339 129.706 284.363 110.136 270.66 108.505Z" fill="#773ADC" fill-rule="nonzero" fill-opacity="1" transform="matrix(1.00186 0 0 1 796 0)"/><path d="M270.15 255.676C265.356 256.869 261.872 258.578 259.505 260.592L259.505 241.569 263.416 234.921C263.418 234.917 263.415 234.912 263.411 234.912L259.505 234.912 259.505 181.682C270.451 178.715 280.665 162.924 282.92 156.93 282.921 156.926 282.918 156.922 282.914 156.923 280.993 157.246 271.399 159.162 264.464 166.096 263.938 166.623 263.432 167.152 262.94 167.682 262.953 167.198 262.966 166.714 262.966 166.22 262.966 155.373 256.32 146.562 256.201 146.405 256.199 146.402 256.2 146.402 256.198 146.405 256.079 146.562 249.433 155.374 249.433 166.22 249.433 166.713 249.445 167.198 249.457 167.682 248.965 167.152 248.459 166.623 247.933 166.096 240.918 159.081 231.177 157.202 229.416 156.912 229.411 156.911 229.409 156.915 229.41 156.919 231.739 163.114 242.562 180.035 253.911 181.981L253.911 213.269C252.335 211.708 250.318 210.156 247.801 208.641 237.157 202.239 222.587 206.912 222.587 206.912 222.587 206.912 225.272 221.965 235.916 228.367 243.991 233.225 250.032 233.394 253.911 230.815L253.911 336.159 249.446 336.159C249.442 336.159 249.439 336.164 249.441 336.168L253.911 343.767 253.911 396.012 259.505 396.012 259.505 298.625 263.415 291.977C263.418 291.973 263.415 291.969 263.41 291.969L259.505 291.969 259.505 276.721C262.77 279.123 268.079 279.923 275.694 278.028 287.746 275.03 294.745 261.422 294.745 261.422 294.745 261.422 282.203 252.678 270.15 255.676Z" fill="#737373" fill-rule="nonzero" fill-opacity="1" transform="matrix(1.00186 0 0 1 796 0)"/><path d="M251.115 225.963C250.967 225.963 250.82 225.905 250.71 225.789 239.223 213.755 229.794 210.864 229.7 210.837 229.404 210.749 229.235 210.439 229.322 210.142 229.41 209.846 229.721 209.677 230.017 209.763 230.411 209.88 239.804 212.744 251.52 225.017 251.733 225.24 251.725 225.594 251.501 225.808 251.393 225.911 251.253 225.963 251.115 225.963Z" fill="#505050" fill-rule="nonzero" fill-opacity="1" transform="matrix(1.00186 0 0 1 796 0)"/><path d="M258.62 270.154C258.392 270.154 258.177 270.012 258.095 269.785 257.989 269.494 258.139 269.173 258.43 269.068 273.773 263.505 287.892 263.441 288.033 263.441 288.342 263.441 288.592 263.692 288.592 264 288.592 264.309 288.342 264.56 288.033 264.56 287.894 264.56 273.961 264.627 258.811 270.121 258.748 270.143 258.684 270.154 258.62 270.154Z" fill="#505050" fill-rule="nonzero" fill-opacity="1" transform="matrix(1.00186 0 0 1 796 0)"/><path d="M365.356 184.685C366.079 183.796 363.135 180.246 363.749 179.301 364.373 178.343 368.81 179.595 369.323 178.589 369.841 177.572 366.221 174.716 366.625 173.661 367.033 172.596 371.634 172.892 371.926 171.799 372.22 170.699 368.083 168.661 368.259 167.541 368.436 166.418 372.999 165.752 373.058 164.618 373.118 163.484 368.648 162.347 368.59 161.212 368.53 160.079 372.857 158.484 372.68 157.361 372.504 156.241 367.896 156.054 367.603 154.954 367.311 153.86 371.212 151.4 370.805 150.336 370.4 149.28 365.856 150.058 365.337 149.041 364.825 148.036 368.125 144.814 367.502 143.856 366.887 142.911 362.606 144.623 361.884 143.733 361.176 142.86 363.734 139.024 362.922 138.211 362.11 137.399 358.272 139.957 357.4 139.249 356.51 138.526 358.221 134.246 357.277 133.631 356.319 133.008 353.098 136.308 352.092 135.795 351.074 135.276 351.852 130.732 350.797 130.328 349.732 129.92 347.273 133.821 346.179 133.529 345.078 133.235 344.892 128.628 343.772 128.452 342.649 128.275 341.053 132.601 339.919 132.542 338.785 132.483 337.648 128.014 336.513 128.073 335.38 128.133 334.714 132.695 333.591 132.872 332.471 133.048 330.433 128.912 329.333 129.206 328.24 129.498 328.535 134.098 327.471 134.507 326.415 134.911 323.56 131.29 322.542 131.809 321.537 132.321 322.789 136.758 321.83 137.383 320.886 137.997 317.336 135.053 316.446 135.775 315.573 136.482 364.648 185.558 365.356 184.685Z" fill="#773ADC" fill-rule="nonzero" fill-opacity="1" transform="matrix(1.00186 0 0 1 796 0)"/><path d="M332.165 152.669C336.682 148.039 344.408 148.795 349.038 153.312 353.668 157.829 354.942 166.216 350.425 170.846L346.99 168.222C342.812 165.237 340.008 166.482 336.545 170.032L320.614 186.387 316.702 182.57 333.155 165.68C336.329 162.425 337.23 160.336 334.694 156.227L332.165 152.669Z" fill="#D1D1D1" fill-rule="nonzero" fill-opacity="1" transform="matrix(1.00186 0 0 1 796 0)"/><path d="M321.46 121.36C321.46 112.091 312.78 105.138 303.512 105.138 294.244 105.138 284.541 112.091 284.541 121.36L290.694 122.479C297.966 123.597 299.596 127.679 299.596 134.785L299.596 377.553 307.427 377.553 307.427 133.714C307.427 127.2 308.594 124.156 315.307 122.478L321.46 121.36Z" fill="#D1D1D1" fill-rule="nonzero" fill-opacity="1" transform="matrix(1.00186 0 0 1 796 0)"/><path d="M361.178 100.996C359.841 96.8821 345.658 97.8045 329.498 103.055 328.016 103.536 326.57 104.038 325.165 104.554 326 103.484 326.834 102.38 327.662 101.241 337.649 87.4952 342.909 74.2906 339.41 71.7482 335.911 69.2059 324.978 78.289 314.991 92.0351 313.75 93.7423 312.583 95.4411 311.496 97.1125 311.612 95.011 311.674 92.8316 311.674 90.5941 311.674 73.6026 308.168 59.8285 303.843 59.8285 299.518 59.8285 296.012 73.6026 296.012 90.5941 296.012 92.7047 296.066 94.7648 296.169 96.7562 295.027 94.988 293.797 93.188 292.481 91.3778 282.494 77.6317 271.561 68.5486 268.062 71.091 264.563 73.6333 269.823 86.8374 279.81 100.584 281.051 102.291 282.305 103.926 283.559 105.476 281.596 104.717 279.542 103.984 277.414 103.293 261.254 98.0422 247.071 97.1204 245.735 101.234 244.398 105.348 256.415 112.938 272.574 118.189 286.788 122.807 299.469 124.075 303.227 121.515 303.233 121.519 303.237 121.524 303.243 121.529 303.721 121.876 304.31 122.14 305.046 122.336 309.987 123.753 321.567 122.213 334.357 118.057 350.517 112.805 362.514 105.109 361.178 100.996Z" fill="#773ADC" fill-rule="nonzero" fill-opacity="1" transform="matrix(1.00186 0 0 1 796 0)"/><path d="M414.403 194.327C414.231 193.94 413.802 193.734 413.388 193.822L413.382 193.823C411.547 194.207 409.923 194.734 408.329 195.243 406.74 195.757 405.22 196.301 403.711 196.842 400.708 197.94 397.786 199.104 394.804 200.403 391.834 201.71 388.833 203.278 385.808 204.998L381.714 207.29C381.709 207.294 381.702 207.286 381.707 207.281L386.425 202.948 392.008 197.827C393.878 196.128 395.714 194.397 397.5 192.615 399.28 190.827 401.022 189 402.709 187.119 403.535 186.162 404.311 185.153 404.997 184.055 405.684 182.958 406.309 181.799 406.755 180.461 406.785 180.372 406.787 180.272 406.755 180.175 406.676 179.939 406.421 179.811 406.184 179.89 404.847 180.336 403.687 180.961 402.59 181.648 401.493 182.334 400.483 183.11 399.526 183.936 397.645 185.623 395.818 187.365 394.03 189.145 392.249 190.931 390.517 192.768 388.818 194.637L383.697 200.221 379.364 204.939C379.359 204.944 379.351 204.938 379.355 204.932L381.648 200.839C383.367 197.813 384.935 194.812 386.242 191.842 387.541 188.86 388.705 185.938 389.803 182.935 390.344 181.427 390.888 179.906 391.402 178.318 391.912 176.723 392.438 175.099 392.822 173.264L392.826 173.249C392.864 173.064 392.846 172.866 392.76 172.682 392.548 172.229 391.995 172.05 391.54 172.257 389.805 173.047 388.327 174.14 386.964 175.35 385.597 176.572 384.394 177.952 383.319 179.416 381.181 182.357 379.667 185.669 378.627 189.034 377.589 192.412 377.156 195.878 376.821 199.299 376.635 201.005 376.462 202.705 376.188 204.375 375.92 206.016 375.561 207.632 375.087 209.211 372.822 211.864 370.517 214.482 368.165 217.057 366.97 218.369 365.75 219.658 364.53 220.947 363.294 222.222 362.062 223.501 360.776 224.729 360.753 224.751 360.727 224.779 360.706 224.804 360.425 225.152 360.478 225.661 360.825 225.942 361.149 226.205 361.607 226.165 361.897 225.878 361.902 225.877 361.905 225.882 361.917 225.869 361.931 225.854 361.946 225.84 361.96 225.825 361.961 225.824 361.962 225.824 361.963 225.823 361.964 225.822 361.965 225.821 361.966 225.819 363.179 224.551 364.441 223.335 365.699 222.116 366.987 220.895 368.277 219.674 369.589 218.479 372.164 216.128 374.781 213.822 377.435 211.557 379.015 211.083 380.63 210.724 382.27 210.456 383.941 210.182 385.64 210.009 387.347 209.823 390.767 209.488 394.234 209.055 397.612 208.017 400.976 206.977 404.288 205.463 407.229 203.325 408.693 202.25 410.073 201.047 411.296 199.68 412.513 198.309 413.612 196.821 414.402 195.072 414.505 194.85 414.516 194.584 414.403 194.327Z" fill="#737373" fill-rule="nonzero" fill-opacity="1" transform="matrix(1.00186 0 0 1 796 0)"/><path d="M393.563 210.423C393.563 210.423 377.576 215.222 363.304 223.785 363.113 223.899 362.922 224.002 362.896 223.976 362.881 223.961 362.968 223.754 363.083 223.564 371.647 209.292 376.444 193.304 376.444 193.304 367.389 186.175 352.302 194.203 343.186 209.694 342.222 211.332 341.367 212.989 340.613 214.647 338.272 238.033 350.802 248.624 372.211 246.259 373.873 245.504 375.532 244.648 377.174 243.682 392.664 234.565 400.693 219.479 393.563 210.423Z" fill="#773ADC" fill-rule="nonzero" fill-opacity="1" transform="matrix(1.00186 0 0 1 796 0)"/><path d="M345.873 248.034C354.381 251.237 367.725 248.293 372.205 246.262 372.208 246.26 372.209 246.256 372.206 246.254 370.88 245.309 364.083 240.776 355.893 240.775 355.271 240.775 354.66 240.789 354.056 240.812 354.35 240.533 354.643 240.255 354.935 239.963 361.336 233.563 362.617 224.442 362.641 224.266 362.642 224.262 362.643 224.264 362.639 224.264 362.463 224.288 353.343 225.57 346.942 231.971 346.65 232.262 346.372 232.555 346.093 232.849 346.116 232.245 346.129 231.634 346.129 231.012 346.129 222.727 341.487 215.865 340.617 214.652 340.615 214.648 340.611 214.65 340.61 214.653 338.309 219.726 334.673 236.319 340.41 244.098L330.468 255.871 326.303 251.706C326.299 251.702 326.292 251.705 326.293 251.711L327.662 259.238C311.263 279.438 297.739 306.802 290.381 334.408 288.789 332.811 286.736 331.221 284.16 329.672 273.516 323.269 258.945 327.942 258.945 327.942 258.945 327.942 261.631 342.995 272.275 349.397 278.934 353.403 284.211 354.222 288.033 352.94L288.033 378.672 294.745 378.672 294.745 344.907C295.627 340.829 296.661 336.739 297.826 332.663L303.682 328.896C303.686 328.893 303.685 328.886 303.679 328.886L299.06 328.513C300.515 323.803 302.147 319.122 303.939 314.506 306.946 317.941 312.708 319.431 321.647 317.206 333.7 314.208 340.699 300.6 340.699 300.6 340.699 300.6 328.156 291.855 316.103 294.854 314.656 295.214 313.33 295.622 312.116 296.07 318.589 283.175 326.236 271.287 334.61 261.372L345.873 248.034Z" fill="#737373" fill-rule="nonzero" fill-opacity="1" transform="matrix(1.00186 0 0 1 796 0)"/><path d="M285.796 346.229C285.609 346.229 285.426 346.135 285.32 345.963 278.259 334.557 264.546 331.143 264.409 331.11 264.108 331.037 263.924 330.735 263.996 330.435 264.068 330.134 264.371 329.952 264.671 330.022 264.813 330.056 278.963 333.569 286.272 345.374 286.434 345.637 286.354 345.982 286.091 346.145 285.998 346.202 285.897 346.229 285.796 346.229Z" fill="#505050" fill-rule="nonzero" fill-opacity="1" transform="matrix(1.00186 0 0 1 796 0)"/><path d="M308.331 308.408C308.142 308.408 307.958 308.312 307.853 308.139 307.692 307.875 307.776 307.531 308.04 307.37 322.632 298.495 333.536 301.712 333.993 301.854 334.288 301.946 334.453 302.258 334.362 302.553 334.272 302.848 333.96 303.013 333.663 302.923 333.556 302.89 322.753 299.73 308.621 308.326 308.531 308.381 308.43 308.408 308.331 308.408Z" fill="#505050" fill-rule="nonzero" fill-opacity="1" transform="matrix(1.00186 0 0 1 796 0)"/><path d="M275.798 314.796C292.095 304.991 300.9 289.731 300.9 289.731 300.9 289.731 283.28 290.369 266.982 300.175 250.685 309.98 245.84 317.355 248.275 321.393 250.709 325.43 259.5 324.601 275.798 314.796Z" fill="#D1D1D1" fill-rule="nonzero" fill-opacity="1" transform="matrix(1.00186 0 0 1 796 0)"/><path d="M252.793 317.141C252.585 317.141 252.386 317.025 252.289 316.824 252.155 316.546 252.272 316.212 252.551 316.078 252.702 316.005 267.887 308.656 289.974 294.852 290.237 294.687 290.582 294.768 290.745 295.029 290.909 295.291 290.829 295.636 290.568 295.8 268.423 309.64 253.187 317.013 253.036 317.086 252.957 317.124 252.874 317.141 252.793 317.141Z" fill="#E5E5E5" fill-rule="nonzero" fill-opacity="1" transform="matrix(1.00186 0 0 1 796 0)"/><path d="M325.682 200.145C326.811 196.705 333.899 194.272 333.91 190.837 333.922 187.278 326.813 184.797 325.743 181.48 324.663 178.129 328.98 171.971 326.922 169.115 324.884 166.287 317.694 168.434 314.82 166.333 312.047 164.306 311.941 156.775 308.501 155.646 305.061 154.517 300.512 160.518 297.077 160.507 293.517 160.495 288.999 154.504 285.682 155.573 282.331 156.654 282.157 164.172 279.301 166.229 276.473 168.267 269.277 166.05 267.176 168.924 265.149 171.697 269.415 177.858 268.285 181.298 267.156 184.739 260.067 187.172 260.056 190.606 260.044 194.166 267.154 196.647 268.224 199.964 269.304 203.315 264.987 209.473 267.045 212.329 269.083 215.157 276.272 213.01 279.147 215.11 281.919 217.138 282.026 224.668 285.465 225.798 288.905 226.927 293.455 220.926 296.89 220.937 300.45 220.949 304.967 226.94 308.285 225.871 311.636 224.79 311.81 217.272 314.666 215.214 317.494 213.177 324.69 215.394 326.791 212.52 328.817 209.747 324.552 203.586 325.682 200.145Z" fill="#773ADC" fill-rule="nonzero" fill-opacity="1" transform="matrix(1.00186 0 0 1 796 0)"/><path d="M322.247 190.11C322.25 189.267 316.51 188.566 309.427 188.544 305.426 188.532 301.853 188.739 299.5 189.073 301.608 187.976 304.644 186.057 307.904 183.704 313.647 179.558 317.903 175.644 317.409 174.961 316.916 174.277 311.861 177.084 306.117 181.229 302.873 183.571 300.105 185.838 298.398 187.491 299.459 185.365 300.787 182.027 302.04 178.209 304.25 171.48 305.392 165.811 304.591 165.548 303.791 165.285 301.35 170.527 299.14 177.257 297.892 181.059 296.984 184.521 296.576 186.862 296.184 184.518 295.297 181.038 294.066 177.21 291.899 170.467 289.491 165.21 288.688 165.468 287.886 165.725 288.993 171.401 291.161 178.144 292.385 181.953 293.686 185.287 294.731 187.422 293.036 185.756 290.273 183.462 287.029 181.089 281.311 176.908 276.274 174.07 275.776 174.75 275.279 175.431 279.51 179.371 285.228 183.553 288.457 185.914 291.468 187.847 293.569 188.96 291.218 188.608 287.634 188.377 283.615 188.364 276.533 188.343 270.788 189.008 270.786 189.85 270.783 190.693 276.523 191.394 283.606 191.416 287.607 191.428 291.18 191.221 293.533 190.887 291.425 191.984 288.389 193.903 285.13 196.256 279.387 200.402 275.13 204.316 275.624 204.999 276.117 205.682 281.173 202.876 286.916 198.731 290.16 196.389 292.928 194.122 294.636 192.469 293.575 194.595 292.247 197.933 290.994 201.751 288.783 208.48 287.641 214.149 288.442 214.412 289.243 214.675 291.683 209.433 293.893 202.703 295.142 198.901 296.049 195.439 296.458 193.098 296.85 195.442 297.737 198.922 298.967 202.75 301.135 209.493 303.543 214.75 304.345 214.492 305.147 214.234 304.04 208.559 301.873 201.816 300.648 198.006 299.347 194.673 298.302 192.538 299.997 194.204 302.761 196.498 306.006 198.871 311.723 203.053 316.761 205.89 317.258 205.21 317.755 204.53 313.524 200.589 307.807 196.408 304.577 194.046 301.566 192.113 299.465 191.001 301.816 191.352 305.4 191.584 309.419 191.596 316.501 191.618 322.244 190.953 322.247 190.11Z" fill="#FFFFFF" fill-rule="nonzero" fill-opacity="1" transform="matrix(1.00186 0 0 1 796 0)"/><path d="M360.66 313.624C326.968 313.624 299.557 341.035 299.557 374.728L299.557 396.013 307.388 396.013 307.388 374.728C307.388 374.485 307.394 374.243 307.397 374.001 309.794 374.865 313.067 374.95 317.321 373.891 326.254 371.668 331.44 361.581 331.44 361.581 331.44 361.581 322.141 355.097 313.207 357.321 312.023 357.616 310.949 357.954 309.974 358.328 316.907 336.954 337.006 321.455 360.66 321.455L382.903 321.455 382.903 313.624 360.66 313.624Z" fill="#D1D1D1" fill-rule="nonzero" fill-opacity="1" transform="matrix(1.00186 0 0 1 796 0)"/><path d="M409.54 315.837C407.533 315.184 405.557 314.599 403.632 314.082 405.666 313.543 407.758 312.928 409.886 312.237 426.046 306.986 438.062 299.395 436.726 295.282 435.389 291.168 421.206 292.091 405.046 297.341 403.039 297.993 401.096 298.681 399.235 299.395 400.564 297.762 401.895 296.036 403.21 294.226 413.197 280.48 418.457 267.275 414.958 264.733 411.459 262.19 400.526 271.273 390.539 285.019 389.299 286.727 388.132 288.425 387.045 290.097 387.16 287.995 387.223 285.815 387.223 283.578 387.223 266.587 383.717 252.813 379.392 252.813 375.067 252.813 371.56 266.587 371.56 283.578 371.56 285.689 371.615 287.749 371.718 289.74 370.575 287.972 369.345 286.172 368.03 284.362 358.043 270.616 347.11 261.532 343.611 264.075 340.112 266.617 345.372 279.821 355.359 293.568 356.599 295.275 357.854 296.91 359.108 298.46 357.144 297.701 355.091 296.968 352.963 296.277 336.803 291.026 322.62 290.104 321.283 294.218 319.947 298.331 331.963 305.922 348.123 311.173 350.13 311.825 352.106 312.41 354.032 312.927 351.997 313.467 349.905 314.081 347.777 314.773 331.618 320.023 319.601 327.614 320.937 331.728 322.274 335.841 336.457 334.919 352.617 329.669 354.624 329.017 356.567 328.328 358.428 327.615 357.1 329.247 355.768 330.974 354.453 332.784 344.466 346.53 339.206 359.735 342.705 362.277 346.204 364.819 357.137 355.736 367.124 341.99 368.365 340.283 369.531 338.584 370.618 336.913 370.503 339.014 370.44 341.194 370.44 343.431 370.44 360.423 373.947 374.197 378.272 374.197 382.597 374.197 386.103 360.423 386.103 343.431 386.103 341.321 386.049 339.26 385.946 337.27 387.088 339.038 388.318 340.838 389.634 342.648 399.621 356.394 410.554 365.477 414.053 362.935 417.552 360.392 412.292 347.188 402.305 333.442 401.064 331.735 399.809 330.099 398.556 328.549 400.519 329.309 402.573 330.041 404.701 330.733 420.86 335.984 435.044 336.905 436.38 332.792 437.717 328.679 425.7 321.087 409.54 315.837Z" fill="#773ADC" fill-rule="nonzero" fill-opacity="1" transform="matrix(1.00186 0 0 1 796 0)"/><path d="M392.618 314.691C388.828 313.459 385.376 312.565 383.034 312.161 383.028 312.16 383.028 312.153 383.034 312.151 385.376 311.75 388.841 310.854 392.649 309.617 399.385 307.428 404.635 305.004 404.374 304.203 404.114 303.401 398.442 304.526 391.706 306.715 387.915 307.947 384.597 309.252 382.464 310.302 382.459 310.304 382.455 310.298 382.459 310.294 384.118 308.592 386.394 305.83 388.748 302.591 392.911 296.861 395.733 291.814 395.051 291.319 394.369 290.823 390.442 295.067 386.279 300.797 383.936 304.021 382.019 307.028 380.911 309.13 380.908 309.135 380.901 309.133 380.902 309.127 381.244 306.776 381.462 303.203 381.462 299.2 381.462 292.117 380.779 286.375 379.936 286.375 379.093 286.375 378.41 292.117 378.41 299.2 378.41 303.184 378.627 306.743 378.966 309.095 378.967 309.101 378.959 309.103 378.956 309.098 377.851 306.995 375.929 303.977 373.575 300.738 369.412 295.008 365.484 290.764 364.803 291.26 364.121 291.755 366.943 296.802 371.106 302.532 373.448 305.755 375.715 308.507 377.372 310.211 377.376 310.215 377.371 310.222 377.366 310.219 375.234 309.168 371.904 307.856 368.098 306.62 361.362 304.431 355.69 303.307 355.43 304.108 355.169 304.909 360.419 307.333 367.155 309.522 370.946 310.753 374.397 311.647 376.739 312.051 376.745 312.052 376.745 312.06 376.739 312.061 374.396 312.463 370.932 313.358 367.125 314.596 360.388 316.785 355.138 319.208 355.399 320.01 355.66 320.812 361.331 319.687 368.068 317.498 371.857 316.267 375.175 314.961 377.307 313.912 377.313 313.909 377.317 313.916 377.314 313.92 375.654 315.622 373.378 318.383 371.026 321.621 366.862 327.351 364.04 332.398 364.722 332.894 365.404 333.389 369.331 329.145 373.495 323.415 375.837 320.192 377.753 317.186 378.861 315.084 378.864 315.078 378.872 315.081 378.871 315.087 378.529 317.439 378.311 321.011 378.311 325.013 378.311 332.095 378.994 337.837 379.837 337.837 380.679 337.837 381.363 332.095 381.363 325.013 381.363 321.029 381.146 317.469 380.807 315.117 380.806 315.111 380.814 315.109 380.817 315.114 381.923 317.218 383.845 320.235 386.198 323.474 390.362 329.204 394.289 333.448 394.971 332.952 395.653 332.457 392.83 327.41 388.667 321.68 386.325 318.456 384.058 315.704 382.401 314.001 382.397 313.996 382.402 313.99 382.407 313.993 384.538 315.044 387.868 316.356 391.674 317.593 398.411 319.782 404.082 320.906 404.343 320.105 404.604 319.304 399.354 316.88 392.618 314.691Z" fill="#FFFFFF" fill-rule="nonzero" fill-opacity="1" transform="matrix(1.00186 0 0 1 796 0)"/><path d="M208.602 72.6941C208.602 75.7835 206.098 78.2879 203.008 78.2879 199.919 78.2879 197.415 75.7835 197.415 72.6941 197.415 69.6048 199.919 67.1004 203.008 67.1004 206.098 67.1004 208.602 69.6048 208.602 72.6941Z" fill="#773ADC" fill-rule="nonzero" fill-opacity="1" transform="matrix(1.00186 0 0 1 796 0)"/><path d="M191.262 79.966C191.262 81.5107 190.009 82.7629 188.465 82.7629 186.92 82.7629 185.668 81.5107 185.668 79.966 185.668 78.4213 186.92 77.1691 188.465 77.1691 190.009 77.1691 191.262 78.4213 191.262 79.966Z" fill="#773ADC" fill-rule="nonzero" fill-opacity="1" transform="matrix(1.00186 0 0 1 796 0)"/><path d="M402.705 102.9C402.705 105.99 400.201 108.494 397.111 108.494 394.022 108.494 391.518 105.99 391.518 102.9 391.518 99.811 394.022 97.3066 397.111 97.3066 400.201 97.3066 402.705 99.811 402.705 102.9Z" fill="#773ADC" fill-rule="nonzero" fill-opacity="1" transform="matrix(1.00186 0 0 1 796 0)"/><path d="M404.383 87.7973C404.383 90.8866 401.879 93.391 398.79 93.391 395.7 93.391 393.196 90.8866 393.196 87.7973 393.196 84.7079 395.7 82.2035 398.79 82.2035 401.879 82.2035 404.383 84.7079 404.383 87.7973Z" fill="#773ADC" fill-rule="nonzero" fill-opacity="1" transform="matrix(1.00186 0 0 1 796 0)"/><path d="M412.215 85.5598C412.215 87.1044 410.962 88.3566 409.418 88.3566 407.873 88.3566 406.621 87.1044 406.621 85.5598 406.621 84.0151 407.873 82.7629 409.418 82.7629 410.962 82.7629 412.215 84.0151 412.215 85.5598Z" fill="#773ADC" fill-rule="nonzero" fill-opacity="1" transform="matrix(1.00186 0 0 1 796 0)"/><path d="M417.808 99.5441C417.808 102.633 415.304 105.138 412.215 105.138 409.125 105.138 406.621 102.633 406.621 99.5441 406.621 96.4548 409.125 93.9504 412.215 93.9504 415.304 93.9504 417.808 96.4548 417.808 99.5441Z" fill="#773ADC" fill-rule="nonzero" fill-opacity="1" transform="matrix(1.00186 0 0 1 796 0)"/><path d="M110.711 119.122C110.711 122.212 108.207 124.716 105.118 124.716 102.028 124.716 99.524 122.212 99.524 119.122 99.524 116.033 102.028 113.529 105.118 113.529 108.207 113.529 110.711 116.033 110.711 119.122Z" fill="#773ADC" fill-rule="nonzero" fill-opacity="1" transform="matrix(1.00186 0 0 1 796 0)"/><path d="M111.271 92.2723C111.271 95.3616 108.766 97.866 105.677 97.866 102.588 97.866 100.083 95.3616 100.083 92.2723 100.083 89.1829 102.588 86.6785 105.677 86.6785 108.766 86.6785 111.271 89.1829 111.271 92.2723Z" fill="#773ADC" fill-rule="nonzero" fill-opacity="1" transform="matrix(1.00186 0 0 1 796 0)"/><path d="M134.765 98.9848C134.765 102.074 132.26 104.579 129.171 104.579 126.082 104.579 123.577 102.074 123.577 98.9848 123.577 95.8954 126.082 93.391 129.171 93.391 132.26 93.391 134.765 95.8954 134.765 98.9848Z" fill="#773ADC" fill-rule="nonzero" fill-opacity="1" transform="matrix(1.00186 0 0 1 796 0)"/><path d="M236.072 374.69 307.672 374.69 307.672 457.477 236.072 457.477Z" fill="#737373" fill-rule="nonzero" fill-opacity="1" transform="matrix(1.00186 0 0 1 796 0)"/><path d="M307.672 405.744 236.072 384.529 236.072 385.696 307.672 406.911Z" fill="#505050" fill-rule="nonzero" fill-opacity="1" transform="matrix(1.00186 0 0 1 796 0)"/><path d="M236.072 410.557 307.672 410.557 307.672 411.675 236.072 411.675Z" fill="#505050" fill-rule="nonzero" fill-opacity="1" transform="matrix(1.00186 0 0 1 796 0)"/><path d="M236.072 418.388 307.672 418.388 307.672 419.507 236.072 419.507Z" fill="#505050" fill-rule="nonzero" fill-opacity="1" transform="matrix(1.00186 0 0 1 796 0)"/><path d="M307.672 448.193 236.072 430.658 236.072 431.81 307.672 449.345Z" fill="#505050" fill-rule="nonzero" fill-opacity="1" transform="matrix(1.00186 0 0 1 796 0)"/><path d="M307.891 416.15 307.891 406.153 236.012 406.082 236.012 416.15 285.537 416.2C280.348 421.325 277.126 428.436 277.126 436.288L286.635 436.288C286.635 428.377 291.566 421.599 298.514 418.855 299.881 433.167 311.967 444.399 326.63 444.399L326.63 434.89C316.297 434.889 307.891 426.483 307.891 416.15Z" fill="#773ADC" fill-rule="nonzero" fill-opacity="1" transform="matrix(1.00186 0 0 1 796 0)"/></g></svg>